<?xml version="1.0" encoding="UTF-8"?>
<svg width="132px" height="95px" viewBox="0 0 132 95" version="1.1" xmlns="http://www.w3.org/2000/svg" xmlns:xlink="http://www.w3.org/1999/xlink">
    <!-- Generator: Sketch 60.1 (88133) - https://sketch.com -->
    <title>Combined Shape</title>
    <desc>Created with Sketch.</desc>
    <g id="PL" stroke="none" stroke-width="1" fill="none" fill-rule="evenodd">
        <g id="Icons" transform="translate(-729.000000, -6380.000000)" fill="currentColor">
            <path d="M765.910007,6380.21655 C767.433451,6380.75496 769.142682,6380.55966 770.469724,6381.93208 C771.2341,6382.72387 771.706527,6383.34674 772.014401,6384.47107 C772.68323,6386.91505 773.856336,6389.22178 774.981667,6391.97191 C785.571464,6391.29098 796.187802,6390.61004 807.032391,6389.91855 C807.032391,6388.35082 806.979309,6387.18953 807.043007,6386.02825 C807.20756,6383.12504 809.330828,6381.60481 811.958372,6382.91917 C814.665538,6384.28104 818.068074,6385.34731 817.829206,6389.8077 C823.79028,6389.8077 829.746045,6389.81298 835.701811,6389.8077 C838.546989,6389.80242 841.397476,6389.69685 844.242654,6389.77603 C848.05392,6389.8816 850.69208,6391.9244 851.398066,6395.73025 C852.204908,6400.03228 852.624253,6404.4082 853.176303,6408.75246 C854.444955,6418.71311 855.150941,6428.75294 858.181906,6438.43382 C858.983439,6441.00448 859.206382,6443.78628 859.519564,6446.48891 C860.034457,6450.96513 860.310481,6455.47302 860.904996,6459.93341 C861.106707,6461.45363 861.032392,6462.7416 860.236167,6464.01902 C859.864595,6464.62077 859.508948,6465.2542 859.248848,6465.91402 C857.916497,6469.3662 856.647845,6470.06825 853.144454,6469.77265 C851.053035,6469.5879 848.924459,6469.84127 846.811808,6469.88878 C844.656692,6469.93629 842.496267,6469.89406 840.346458,6470.0313 C837.99494,6470.18438 835.659345,6470.59083 833.307827,6470.71223 C831.667602,6470.79141 830.011454,6470.44831 828.365921,6470.51693 C822.643715,6470.76502 816.932126,6471.19786 811.20992,6471.39317 C805.631034,6471.57792 800.046841,6471.52513 794.467955,6471.64126 C786.702104,6471.79962 778.930945,6471.86824 771.17571,6472.26941 C766.531063,6472.51222 761.918264,6473.37263 757.284232,6473.8477 C754.322274,6474.14858 751.312543,6474.07996 748.377125,6474.52336 C747.023542,6474.72922 745.802663,6475.39432 744.417231,6474.67116 C742.697385,6473.77908 741.603902,6472.6178 741.614518,6470.51693 C741.635751,6467.07003 741.720681,6463.60201 741.338493,6460.19734 C740.919148,6456.46011 739.974294,6452.79151 739.316081,6449.08068 C738.886119,6446.63671 738.562321,6444.17162 738.185441,6441.71709 C737.792637,6439.14643 737.516612,6436.55465 736.975179,6434.01566 C735.196942,6425.69665 733.360316,6417.39347 731.449375,6409.10085 C731.05657,6407.39059 730.24442,6405.77535 729.681755,6404.10205 C729.384497,6403.20997 728.965152,6402.27567 729.002309,6401.37831 C729.103164,6399.16131 729.602132,6397.071 732.511009,6396.89153 C733.365624,6392.50505 733.355007,6392.32557 737.298977,6392.08804 C741.216405,6391.85578 745.155067,6392.04581 749.083112,6392.05109 L762.380075,6392.05109 C762.380075,6389.72852 762.353534,6387.6171 762.390691,6385.50567 C762.406615,6384.32855 762.321685,6383.08809 762.661408,6381.99015 C763.11791,6380.53326 764.004374,6379.54089 765.910007,6380.21655 Z M827.242606,6418.68263 C824.993353,6418.67243 822.744101,6418.90462 820.489531,6419.02071 C814.661682,6419.31094 808.833832,6419.617 803.000665,6419.8703 C800.155866,6419.99167 797.305749,6420.07082 794.455633,6420.07082 C788.840479,6420.07082 783.225324,6419.92835 777.604852,6419.98112 C772.356597,6420.02861 767.108342,6420.37161 761.860086,6420.36633 C756.845796,6420.36106 751.826188,6420.12359 746.817215,6419.87558 C744.876371,6419.78059 742.951479,6419.36899 741,6419.09986 C745.381522,6434.91491 747.104354,6451.18379 749.119641,6467.48959 C750.082087,6467.53181 750.789299,6467.65846 751.480558,6467.5793 C754.32004,6467.25213 757.143569,6466.74554 759.993686,6466.51863 C766.028913,6466.03843 772.032237,6465.34187 778.141908,6465.57933 C784.43237,6465.8168 790.744101,6465.27855 797.045198,6465.06219 C800.251579,6464.95138 803.452642,6464.82473 806.653706,6464.65059 C812.141243,6464.36563 817.62878,6463.94348 823.116318,6463.75351 C831.703888,6463.458 840.323363,6463.71657 849.192755,6462.33928 C848.458956,6459.4264 851.585577,6460.4343 853,6458.56625 C852.372549,6452.86714 852.191758,6446.6456 850.904952,6440.66153 C849.384181,6433.59567 847.453971,6426.61953 846.858425,6419.30566 C846.337321,6419.18429 845.885344,6418.9996 845.428049,6418.98905 C839.366235,6418.86768 833.30442,6418.7252 827.242606,6418.68263 Z M784.849205,6425.62049 C783.707035,6429.73121 783.417545,6433.83165 784.128111,6438.01945 C784.433392,6439.8333 784.312333,6441.72423 784.333386,6443.57919 C784.364967,6446.20492 784.343913,6448.83578 784.343913,6451.89826 C786.022957,6451.80577 787.501989,6451.43581 788.817853,6451.73383 C790.217933,6452.05241 791.733809,6452.7461 792.718076,6453.73781 C794.82346,6455.85997 794.307641,6456.89792 791.375894,6457.58133 C787.68621,6458.43944 783.954417,6458.68095 780.180517,6458.81455 C778.827808,6458.86593 777.454046,6459.27186 776.164498,6459.72404 C774.106486,6460.44856 771.758983,6459.7189 770.716818,6457.8588 C769.795713,6456.21965 770.285215,6454.96075 772.190587,6454.41608 C773.780151,6453.95876 775.411824,6453.60935 777.043496,6453.3216 C778.080397,6453.13662 778.969922,6452.82831 778.964658,6451.67731 C778.954131,6446.9654 778.880443,6442.25349 778.817282,6436.86331 C777.638267,6437.69573 776.990861,6438.06569 776.453989,6438.55384 C775.327608,6439.58152 774.311761,6440.73252 773.1538,6441.71909 C771.453703,6443.17326 769.948353,6442.97286 768.643016,6441.24636 C767.72191,6440.02856 767.732437,6439.03171 769.053565,6437.9732 C770.874722,6436.50876 772.643244,6434.94668 774.222282,6433.24074 C776.548731,6430.74347 778.543582,6427.99957 778.938341,6424.35131 C781.470065,6423.61138 783.285958,6424.043 784.849205,6425.62049 Z M814.256646,6425.69958 C817.606534,6428.35917 818.924777,6431.9214 818.593924,6436.47225 C818.092474,6443.37106 813.905115,6447.19656 808.880283,6450.54925 C808.689009,6450.6782 808.440869,6450.71581 808.244425,6450.84476 C808.05832,6450.97371 807.908402,6451.15639 807.665432,6451.3928 C808.394343,6452.70379 809.552329,6452.10202 810.451835,6452.01068 C813.455361,6451.71517 816.443378,6451.23699 819.446904,6450.91461 C820.341242,6450.8179 821.34931,6450.79641 822.166103,6451.11878 C823.484346,6451.63458 824.053,6452.8596 823.996134,6454.33178 C823.939269,6455.75022 823.132815,6456.55079 821.871437,6456.84092 C820.966761,6457.05047 820.041406,6457.19016 819.121221,6457.22777 C816.458887,6457.3406 813.775875,6457.18479 811.144559,6457.50716 C807.210509,6457.98535 803.317815,6458.44205 799.32173,6457.20091 C797.067794,6452.65006 797.620939,6450.43105 801.565328,6447.98638 C803.26095,6446.93329 805.018607,6445.96617 806.817621,6445.11188 C811.242781,6443.02719 813.062473,6439.22318 813.3468,6434.47353 C813.58977,6430.43311 810.312257,6428.04754 806.967539,6429.81522 C806.274815,6430.18596 805.747518,6431.1477 805.427004,6431.96439 C804.946233,6433.18403 804.387918,6434.09205 803.002471,6434.20489 C801.275831,6434.34995 800.453868,6433.6461 800.31429,6431.79245 C800.102337,6428.96093 801.358545,6426.61835 803.969182,6425.42556 C807.406953,6423.86205 810.994641,6423.10984 814.256646,6425.69958 Z M817.51719,6398.21701 C817.51719,6398.99927 817.273286,6399.92424 817.559608,6400.62194 C818.614757,6403.14843 817.294495,6404.84509 815.894699,6406.68975 C814.988013,6407.89486 814.049514,6408.36527 812.564882,6408.12214 C811.085552,6407.879 810.131146,6407.08617 809.754686,6405.71721 C809.346412,6404.23725 809.150229,6402.69387 808.810884,6401.18749 C808.540469,6399.97181 808.19052,6398.77199 807.877687,6397.58274 C797.002759,6398.1853 786.514896,6398.76671 775.873267,6399.35869 C775.618759,6400.5268 775.518016,6401.60505 775.146858,6402.58288 C774.44696,6404.43282 773.980362,6406.58933 772.702518,6407.953 C770.634638,6410.16764 765.496751,6407.96885 764.892294,6404.86095 C764.547647,6403.06386 764.176489,6401.27734 763.853052,6399.69168 C760.645187,6399.69168 757.898618,6399.73396 755.157351,6399.68111 C750.99508,6399.6124 746.827506,6399.40097 742.665235,6399.41154 C741.048047,6399.41683 739.436161,6399.85553 737.69702,6400.10924 C737.007727,6404.39582 739.383138,6407.93714 739.324813,6411.97002 C741.297253,6412.15501 743.121229,6411.82731 744.293028,6412.55143 C746.223049,6413.73539 748.168977,6413.57154 750.162625,6413.6614 C752.198692,6413.74596 754.234758,6413.75125 756.270825,6413.79882 C761.700336,6413.9151 767.140451,6414.23224 772.564659,6414.1001 C778.975087,6413.9521 785.374911,6413.25441 791.785339,6413.08527 C800.078068,6412.86328 808.381402,6413.02713 816.674131,6412.83685 C821.753692,6412.72057 826.82265,6412.15501 831.896909,6411.98059 C836.350805,6411.83259 840.815305,6411.94888 845.571429,6411.94888 C845.380547,6407.08088 845.035901,6402.56173 843.853497,6398.28572 C833.858744,6396.67891 821.04319,6396.66306 817.51719,6398.21701 Z" id="Combined-Shape"></path>
        </g>
    </g>
</svg>