<?xml version="1.0" encoding="UTF-8"?>
<svg width="105px" height="122px" viewBox="0 0 105 122" version="1.1" xmlns="http://www.w3.org/2000/svg" xmlns:xlink="http://www.w3.org/1999/xlink">
    <!-- Generator: Sketch 60.1 (88133) - https://sketch.com -->
    <title>Fill 92 Copy 2</title>
    <desc>Created with Sketch.</desc>
    <g id="PL" stroke="none" stroke-width="1" fill="none" fill-rule="evenodd">
        <g id="Icons" transform="translate(-454.000000, -6555.000000)" fill="currentColor">
            <path d="M519.391234,6632.51166 C515.965706,6634.55427 513.788685,6637.87089 511.564453,6641.00326 C509.959228,6643.26698 509.46612,6646.07295 510.667415,6649 C512.125757,6648.62622 513.379511,6648.363 514.586052,6647.97869 C521.353175,6645.82552 526.950478,6642.11933 530.438957,6635.71772 C531.69271,6633.41188 532.673681,6631.01655 531.414681,6628 C527.139328,6628.83705 523.121021,6630.29531 519.391234,6632.51166 Z M544.177565,6581.8237 C538.288782,6581.11204 532.601598,6581.90932 527.503292,6585.2215 C524.797635,6586.97658 522.213998,6588.91359 519.534867,6590.70077 C517.43931,6592.1027 514.616938,6591.87796 513.550591,6589.89814 C512.685842,6588.28754 511.890061,6586.1686 512.197763,6584.48843 C512.722979,6581.62037 511.980249,6579.05196 511.524001,6576.37653 C510.754746,6571.84436 508.988111,6567.74025 506.431,6564 C500.754426,6565.8942 496.568616,6571.10594 496.351103,6576.86881 C496.244998,6579.49073 496.791435,6582.1287 496.977117,6584.76667 C497.157494,6587.35114 496.382934,6588.66745 494.202493,6589.72157 C492.037967,6590.77568 491.406647,6590.58305 489.19968,6588.57648 C487.236753,6586.79465 485.194247,6585.17869 482.435539,6584.68106 C479.745797,6584.18878 477.125024,6583.22563 474.424672,6582.82966 C471.724321,6582.43905 468.891339,6581.86116 466,6583.88913 C467.40588,6586.10974 468.721572,6588.23938 470.090316,6590.33691 C474.721764,6597.4482 481.135762,6601.91617 489.369447,6603.96019 C491.841675,6604.57554 494.435922,6604.70396 496.855097,6606.08983 C498.207926,6606.86036 500.998466,6608.075 502.414957,6605.09458 C502.563503,6604.77352 503.49722,6604.63975 504.022435,6604.72002 C505.428316,6604.93405 506.828891,6605.2658 508.208245,6605.62431 C512.330393,6606.71053 516.494982,6606.71053 520.452669,6605.2765 C524.219367,6603.91204 527.917098,6602.23187 531.413231,6600.27345 C534.930585,6598.30434 538.36836,6596.06233 541.450687,6593.47252 C544.511793,6590.91481 546.798338,6587.54912 549,6583.93194 C547.175008,6583.10256 545.731991,6582.01098 544.177565,6581.8237 Z M491.344648,6614.87124 C485.215503,6613.81162 479.693416,6611.28118 474.671884,6607.68585 C469.804779,6604.2065 465.826959,6599.80459 461.881089,6595.38159 C461.561586,6595.02311 461.045055,6594.68045 460.991804,6594.27452 C460.507224,6590.54213 457.408039,6588.25419 455.927672,6585.08059 C455.230089,6583.58869 454.628357,6582.04934 454,6580.56798 C454.84136,6578.71232 456.295101,6577.99009 458.222773,6577.64743 C460.294221,6577.28895 462.259168,6576.31368 464.330617,6575.98156 C470.667439,6574.95884 476.706057,6576.70906 482.755325,6578.22732 C484.246342,6578.60162 485.721384,6579.04444 487.750232,6579.60852 C486.855622,6572.38095 489.864281,6566.61893 494.342656,6562.11159 C499.412114,6557.01381 505.466707,6555.06853 510.669291,6555 C516.132803,6561.5317 522.442999,6567.6522 522.160771,6577.66324 C535.249769,6572.59709 547.23648,6574.11009 558.333905,6581.48526 C560.368078,6585.89772 557.268893,6588.73392 555.378497,6591.88115 C552.524265,6596.64154 548.104465,6599.91529 543.966893,6603.44209 C543.263985,6604.04307 542.34275,6604.38046 541.528015,6604.86546 C540.505604,6605.47172 539.206289,6605.88818 538.524681,6606.76857 C536.17633,6609.79455 532.480738,6610.41134 529.397528,6612.08776 C524.280145,6614.88706 518.53973,6615.57766 512.852566,6616.21027 C510.770467,6616.43695 510.14211,6617.37532 510.136785,6619.15717 C510.126135,6622.70506 510.13146,6626.24767 510.13146,6630.30692 C511.883405,6629.4898 513.821727,6629.03643 515.121042,6627.87664 C517.357567,6625.89447 519.860345,6624.85593 522.666652,6624.00191 C525.254631,6623.21115 527.618958,6621.72979 530.105761,6620.60163 C532.571264,6619.47875 535.031442,6618.28206 537.869699,6619.36277 C539.254215,6619.88995 539.999723,6620.74397 539.957123,6622.30968 C539.855946,6625.99463 540.13285,6629.71121 539.72282,6633.35926 C539.275515,6637.33943 537.118865,6640.72917 534.509586,6643.72879 C530.505141,6648.33103 525.206706,6651.16723 519.663318,6653.41299 C516.958187,6654.50424 513.864327,6654.64131 511.713003,6655.05778 C510.046259,6657.19284 508.78422,6658.73219 507.618032,6660.34534 C507.160076,6660.97795 506.62757,6661.76871 506.643546,6662.4804 C506.728747,6665.51165 506.931099,6668.54291 507.239952,6671.56889 C507.442305,6673.49835 505.839462,6676.35564 504.039591,6676.86173 C501.542138,6677.56814 499.752918,6675.4858 499.449389,6672.48618 C498.714531,6665.25861 500.003196,6658.11012 499.93397,6650.91946 C499.832794,6640.60264 499.902019,6630.28056 499.928645,6619.95848 C499.928645,6618.89886 500.099047,6617.83924 500.253473,6616.14701 C497.074412,6615.69891 494.193555,6615.36151 491.344648,6614.87124 Z" id="Fill-92-Copy-2"></path>
        </g>
    </g>
</svg>