<?xml version="1.0" encoding="UTF-8"?>
<svg width="156px" height="101px" viewBox="0 0 156 101" version="1.1" xmlns="http://www.w3.org/2000/svg" xmlns:xlink="http://www.w3.org/1999/xlink">
    <!-- Generator: Sketch 60.1 (88133) - https://sketch.com -->
    <title>Combined Shape Copy 2</title>
    <desc>Created with Sketch.</desc>
    <g id="PL" stroke="none" stroke-width="1" fill="none" fill-rule="evenodd">
        <g id="Icons" transform="translate(-915.000000, -6747.000000)" fill="currentColor">
            <path d="M956.968981,6747.09718 C960.401007,6747.37345 963.854152,6747.43079 967.296738,6747.44642 C970.36444,6747.46727 973.426863,6747.27441 976.494566,6747.21707 L979.114443,6747.16108 C980.861158,6747.12672 982.607091,6747.10934 984.345984,6747.17537 C993.25869,6747.5194 1002.16612,6747.88428 1011.06826,6748.34299 C1018.16991,6748.70787 1025.26629,6749.24998 1032.36266,6749.64613 C1034.8126,6749.77645 1037.28894,6749.53667 1039.72303,6749.7556 C1042.07793,6749.96932 1042.86466,6751.05353 1042.50561,6753.25325 C1042.33137,6756.27655 1042.26273,6759.31027 1041.96705,6762.32315 C1041.36513,6768.46879 1042.24161,6774.53624 1043.28706,6780.52029 C1045.05587,6790.60665 1046.46564,6800.70865 1046.99893,6810.94096 C1047.12565,6813.36481 1048.00742,6815.69484 1047.48469,6818.23858 C1047.32101,6819.04653 1048.3823,6820.53733 1049.27462,6821.02731 C1051.46584,6822.23663 1052.48489,6824.07147 1052.79641,6826.31288 C1052.96537,6827.55347 1053.5409,6828.13207 1054.55466,6828.68982 C1059.27502,6831.27526 1062.83377,6835.23162 1066.68291,6838.84394 C1067.70724,6839.80306 1068.96389,6840.55367 1069.8615,6841.60661 C1071.79399,6843.86887 1071.20791,6845.64115 1068.54677,6847.12674 C1067.005,6847.98682 1065.64275,6848.09107 1063.86865,6847.94512 C1059.26446,6847.55939 1054.58634,6847.34567 1049.98743,6847.68449 C1044.14243,6848.11192 1038.42942,6847.40822 1032.65306,6846.91824 C1026.38038,6846.38134 1020.04961,6846.48559 1013.7558,6846.16763 C1002.8578,6845.6203 991.970361,6844.9166 981.07764,6844.36407 C972.682378,6843.94185 964.276555,6843.68643 955.886573,6843.29549 C953.637277,6843.19124 951.39854,6842.83157 949.154523,6842.65434 C943.462641,6842.20606 937.760199,6841.87245 932.078877,6841.35119 C927.490523,6840.93419 922.912729,6840.33995 918.345495,6839.75093 C916.523882,6839.51636 915.409793,6838.40608 915.082431,6836.58168 C914.760349,6834.74685 915.372833,6833.38636 917.083566,6832.48979 C921.7564,6830.03988 926.434515,6827.6056 931.059829,6825.07228 C935.489782,6822.64322 939.866935,6820.1099 944.244087,6817.58701 C945.706658,6816.74257 946.371943,6815.58537 945.98122,6813.75054 C945.231454,6810.20077 944.101526,6806.57802 944.238807,6803.02825 C944.513369,6795.97562 942.607275,6789.12106 942.955757,6782.07364 C943.219759,6776.80893 942.316873,6771.58592 941.255585,6766.37854 C940.468859,6762.5108 940.5375,6758.46583 940.273498,6754.49905 C940.157337,6752.74241 940.247097,6750.97013 940.072856,6749.22392 C939.914455,6747.60801 940.738141,6746.96686 942.126791,6747.12324 C947.079468,6747.68099 952.016305,6746.70102 956.968981,6747.09718 Z M970.848568,6818.60375 C966.808688,6818.68275 962.768809,6818.90919 958.728929,6818.96186 C955.45578,6819.00399 952.288388,6818.96186 949.353658,6820.97356 C944.864315,6824.04904 940.200475,6826.89281 935.541923,6829.71025 C933.532559,6830.92149 931.343409,6831.82728 929.233577,6832.86473 C929.307606,6833.11751 929.381635,6833.36503 929.455664,6833.61254 C935.663542,6834.34981 941.855557,6835.21874 948.07401,6835.7875 C954.948151,6836.42471 961.848731,6836.80388 968.738736,6837.24624 C971.932567,6837.45163 975.136974,6837.51482 978.336094,6837.69914 C983.32249,6837.98878 988.308886,6838.39429 993.305858,6838.6418 C999.23877,6838.94197 1005.17697,6839.17369 1011.11517,6839.35801 C1015.29253,6839.48966 1019.49105,6839.31061 1023.65255,6839.60552 C1029.78639,6840.03209 1035.90967,6841.32232 1042.01179,6841.18013 C1046.9506,6841.06427 1051.86825,6840.76409 1056.81234,6841.11167 C1057.33055,6841.14853 1057.87519,6840.7325 1059.0438,6840.29013 C1055.58557,6837.43583 1052.66671,6834.64472 1049.36712,6832.40657 C1046.11512,6830.20528 1041.90603,6829.19943 1041.89546,6824.01745 C1041.89546,6823.14852 1040.05002,6821.70557 1038.90256,6821.53178 C1035.29628,6820.98936 1031.61069,6820.88403 1027.95153,6820.68918 C1026.04792,6820.58912 1024.12316,6820.75764 1022.21955,6820.62072 C1014.14508,6820.03617 1006.0759,6819.28836 997.990849,6818.79334 C993.242404,6818.50369 988.472808,6818.53529 983.713787,6818.50369 C979.425381,6818.4721 975.136974,6818.52476 970.848568,6818.60375 Z M1019.73403,6833.31635 C1020.35492,6834.39315 1021.0554,6835.42423 1022,6836.90736 C1020.84314,6837.75051 1019.84547,6838.48192 1019.13968,6839 C1017.40438,6838.57335 1016.08301,6837.99939 1014.75102,6837.974 C1012.38422,6837.9232 1012.69732,6836.18611 1012.21972,6834.87567 C1011.64659,6833.30619 1012.21972,6832.16845 1013.64722,6831.43196 C1015.66908,6830.38056 1018.58247,6831.34053 1019.73403,6833.31635 Z M991.709494,6835.57496 C991.595494,6837.18996 990.509494,6837.95996 988.529494,6837.81496 C986.273494,6837.64996 985.829494,6836.61996 986.681494,6833.18996 C990.773494,6833.04496 991.853494,6833.58496 991.709494,6835.57496 Z M977,6831.90885 C977,6833.40576 975.123331,6834.95869 973.270661,6834.99942 C971.557181,6835.02997 970.194076,6833.84873 970.016488,6832.43328 C969.810103,6830.79889 971.56198,6829.15941 974.105802,6829.00157 C975.814483,6828.95066 977,6830.14208 977,6831.90885 Z M1034.39569,6826.30228 C1035.69754,6826.48747 1035.96689,6827.81467 1035.99832,6829.29002 C1036.02974,6830.8271 1035.62572,6831.95059 1034.3912,6832.28393 C1033.61906,6832.49381 1032.86937,6832.87037 1032.54167,6833 C1030.48563,6833 1029.07604,6831.32094 1029.00421,6829.35175 C1028.93687,6827.47515 1029.67309,6826.37018 1031.51365,6826.04918 C1032.45188,6825.88868 1033.43501,6826.1603 1034.39569,6826.30228 Z M1007,6828.75591 C1001.42257,6832.27851 998.623204,6831.72021 997,6826.61134 C1003.01916,6823.88188 1006.31346,6824.63514 1007,6828.75591 Z M984.982896,6826.40791 C985.166881,6829.73008 983.863656,6830.3372 981.211208,6830.89575 C977.833042,6831.60973 978.201012,6828.47698 977,6826.95189 C980.132852,6824.48455 981.466742,6824.41655 984.982896,6826.40791 Z M963.030375,6824 C963.592872,6824.15975 964.243099,6824.39253 964.913968,6824.53402 C966.374399,6824.83526 967.174281,6825.52446 966.96786,6826.93481 C966.756278,6828.3406 966.312472,6829.34474 964.377273,6829.69162 C959.985661,6830.47667 959.154816,6829.97004 959,6825.72072 C960.450109,6825.09998 961.688637,6824.57053 963.030375,6824 Z M946.961394,6752.67416 C946.813726,6758.13352 946.718796,6762.87578 948.20075,6767.62851 C949.234426,6770.94705 949.656335,6774.60058 949.561406,6778.08138 C949.287165,6787.91137 950.758571,6797.60003 952.019023,6807.25205 C952.899758,6813.9624 953.553716,6813.54889 959.924537,6813.20343 C960.098574,6813.1982 960.251516,6812.93648 960.478292,6812.74281 C959.339138,6805.94348 958.141973,6799.11274 957.066106,6792.26629 C956.190645,6786.68131 955.40484,6781.07539 954.6665,6775.46947 C954.070554,6770.93134 953.553716,6766.37752 953.110712,6761.82369 C953.021056,6760.93909 953.268928,6759.94981 953.617002,6759.11233 C954.318425,6757.40595 955.457579,6756.89823 956.934259,6757.86657 C958.806479,6759.10186 960.736711,6759.56248 962.935909,6759.46826 C964.787034,6759.38975 966.965137,6758.92913 968.447091,6759.69333 C971.82236,6761.43112 975.181808,6760.21676 978.4516,6760.19059 C986.056503,6760.12255 993.619215,6760.09114 1001.22412,6760.63027 C1008.76574,6761.15893 1016.23352,6762.81297 1023.87534,6762.14298 C1026.98164,6761.8708 1029.27577,6763.93834 1029.36542,6766.4822 C1029.56056,6771.98867 1029.90336,6777.49514 1029.90336,6783.00161 C1029.89281,6790.40289 1030.93703,6797.70995 1031.63846,6805.05365 C1031.93379,6808.17328 1032.477,6811.27198 1032.93055,6814.52247 L1039.11679,6814.52247 C1038.74234,6812.15657 1038.99022,6809.76974 1037.99346,6808.12094 C1034.44942,6802.28471 1034.05388,6795.88842 1033.68471,6789.38743 C1033.29972,6782.45201 1032.63522,6775.53228 1032.20803,6768.59685 C1032.1131,6767.11032 1032.03927,6765.30972 1032.77234,6764.15818 C1034.16991,6761.94408 1034.07498,6759.7038 1034.20683,6756.99768 C1023.7013,6756.09215 1013.41728,6754.96677 1003.10161,6754.38577 C993.250045,6753.8257 983.372109,6753.8257 973.504721,6753.58492 C970.778136,6753.52211 968.051552,6753.52735 965.319693,6753.42789 C959.2864,6753.20282 953.25838,6752.93587 946.961394,6752.67416 Z M959.978102,6765.74499 C960.40163,6768.38629 960.766922,6770.67473 961.137508,6772.96316 C963.112205,6785.18372 965.081607,6797.40428 967.066891,6809.62484 C967.47983,6812.15198 967.908652,6812.35955 970.645697,6812.22982 C974.923323,6812.02225 979.206244,6811.76279 983.478576,6811.86657 C991.266185,6812.05339 999.053794,6812.43739 1006.83611,6812.83176 C1012.43196,6813.11717 1018.02253,6813.56863 1023.61309,6813.92669 C1024.4972,6813.98377 1025.38661,6813.93706 1026.0219,6813.93706 C1025.3072,6806.1844 1024.51308,6798.66526 1023.95191,6791.13573 C1023.39073,6783.61658 1023.06779,6776.08706 1022.63368,6768.49526 C1021.31545,6768.67689 1020.26193,6769.01937 1019.26134,6768.92078 C1014.67136,6768.47451 1010.10786,6767.62867 1005.51788,6767.45224 C999.821437,6767.23429 994.188524,6765.61007 988.433846,6766.66867 C988.100318,6766.73094 987.729732,6766.54931 987.375027,6766.53894 C984.394454,6766.46629 981.408586,6766.44034 978.433306,6766.32618 C974.166268,6766.16531 969.909818,6765.92142 965.64278,6765.75537 C963.996318,6765.6931 962.344561,6765.74499 959.978102,6765.74499 Z" id="Combined-Shape-Copy-2"></path>
        </g>
    </g>
</svg>