<?xml version="1.0" encoding="UTF-8"?>
<svg width="72px" height="78px" viewBox="0 0 72 78" version="1.1" xmlns="http://www.w3.org/2000/svg" xmlns:xlink="http://www.w3.org/1999/xlink">
    <!-- Generator: Sketch 60.1 (88133) - https://sketch.com -->
    <title>Fill 10</title>
    <desc>Created with Sketch.</desc>
    <g id="PL" stroke="none" stroke-width="1" fill="none" fill-rule="evenodd">
        <g id="Icons" transform="translate(-454.000000, -6386.000000)" fill="currentColor">
            <path d="M466.956716,6439 C466.216141,6441.83437 465.53365,6444.43127 465,6446.48811 C466.270595,6447.72144 467.247138,6448.52962 468.060318,6449.49867 C469.200223,6450.86223 470.267523,6451.38315 471.42921,6450.70136 C473.607372,6449.41824 475.72745,6448.02786 478,6446.60684 C473.98492,6444.75684 471.512706,6440.5704 466.956716,6439 M454,6461.88165 C455.131217,6458.94133 456.345114,6456.15238 457.284663,6453.26882 C458.611307,6449.18946 459.753798,6445.04198 460.933872,6440.91342 C461.490085,6438.96834 461.85463,6436.96272 462.538622,6435.06683 C462.824245,6434.27594 463.677355,6433.65911 464.346314,6433.05364 C465.533904,6431.99406 466.830482,6431.06315 467.984248,6429.96952 C471.5846,6426.53347 474.215337,6422.25354 477.665361,6418.67748 C480.574205,6415.65769 483.328963,6412.4941 486.162643,6409.40241 C488.774589,6406.54156 491.50304,6403.77909 493.998482,6400.81228 C496.847195,6397.42921 499.492965,6393.87206 502.221415,6390.38303 C502.717497,6389.74729 503.239887,6389.11911 503.660805,6388.4266 C504.863427,6386.47017 506.389255,6385.70198 508.531427,6386.10311 C508.832083,6386.15609 509.102673,6386.40584 509.377021,6386.5837 C512.744365,6388.81259 516.100434,6391.05284 519.479052,6393.26659 C521.106351,6394.32995 522.805056,6395.27978 524.409806,6396.36963 C526.277629,6397.64112 526.48433,6398.68178 525.112589,6400.53225 C521.140175,6405.89446 517.35943,6411.38533 512.687992,6416.23288 C508.937312,6420.11169 505.870624,6424.64137 502.349194,6428.75101 C497.392133,6434.52948 493.08524,6440.88314 487.173598,6445.81395 C486.166401,6446.65404 485.411004,6447.84228 484.663123,6448.95862 C483.956582,6450.01441 483.095955,6450.82044 481.818168,6450.79396 C479.901488,6450.74855 478.43955,6451.75514 476.94003,6452.68605 C473.565169,6454.76358 470.257957,6456.94328 466.860547,6458.98674 C464.402687,6460.46258 461.903487,6461.90057 459.317848,6463.13422 C456.487926,6464.49275 456.439069,6464.37922 454,6461.88165" id="Fill-10"></path>
        </g>
    </g>
</svg>