<?xml version="1.0" encoding="UTF-8"?>
<svg width="121px" height="117px" viewBox="0 0 121 117" version="1.1" xmlns="http://www.w3.org/2000/svg" xmlns:xlink="http://www.w3.org/1999/xlink">
    <!-- Generator: Sketch 60.1 (88133) - https://sketch.com -->
    <title>Fill 58</title>
    <desc>Created with Sketch.</desc>
    <g id="PL" stroke="none" stroke-width="1" fill="none" fill-rule="evenodd">
        <g id="Icons" transform="translate(-777.000000, -6550.000000)" fill="currentColor">
            <path d="M851.52,6616 C851.541523,6618.14075 850.115635,6620.23732 851.89665,6622 L858.708629,6622 C859.106802,6620.36007 859.504975,6618.71522 860,6616.66285 C856.707005,6616.40262 854.231878,6616.21113 851.52,6616 Z M823,6612.58895 C820.046373,6612.38882 817.365636,6612.21728 814,6612 C815.182521,6615.40216 816.151011,6618.18679 817.130202,6621 C819.25981,6620.85705 821.127229,6620.73126 823,6620.60546 L823,6612.58895 Z M807.493551,6614.13703 C807.142734,6612.53606 806.291488,6611.57873 804.656062,6611.48678 C802.16939,6611.34616 799.682717,6611.17308 797,6611 C797.299226,6611.96274 797.546862,6612.6226 797.706793,6613.3041 C799.264832,6619.87023 800.987962,6621.26026 807.282029,6620.96278 C807.736028,6620.94656 808.184867,6620.91951 809,6620.87624 C808.44282,6618.37743 807.957868,6616.25723 807.493551,6614.13703 Z M852,6609.05225 C855.315143,6609.39549 858.262537,6609.6875 861.339725,6610 C861.880531,6607.13115 862.399705,6604.33914 863,6601.1373 C860.014749,6600.77869 857.251229,6600.44057 853.6765,6600 C853.103245,6603.08402 852.55703,6606.03484 852,6609.05225 Z M792,6596 C792.715716,6599.13438 793.342621,6601.87073 793.948629,6604.50206 C797.0936,6606.35394 800.337832,6606.0499 804,6605.84537 C803.498476,6602.55621 803.033522,6599.47158 802.505877,6596 L792,6596 Z M831,6620.9932 C835.383224,6621.34694 839.397615,6621.67347 843.465461,6622 C843.652549,6619.17007 843.812911,6616.79184 844,6614 L831,6614 L831,6620.9932 Z M855,6592.09857 C858.301097,6592.42162 861.17996,6592.70821 864.195912,6593 C864.804586,6589.34216 865.391326,6585.84064 866,6582.17759 C862.534397,6581.76596 859.397807,6581.39079 856.113161,6581 C855.723829,6584.90795 855.367398,6588.4251 855,6592.09857 Z M811,6597 C811.429734,6599.63186 811.740385,6602.10389 812.294379,6604.51199 C812.439349,6605.13532 813.288462,6605.96111 813.894231,6606.0357 C817.18713,6606.45658 820.505917,6606.67501 824.22855,6607 C824.497781,6603.49441 824.730769,6600.46297 825,6597 L811,6597 Z M848.901546,6648.67524 C846.807209,6648.01031 846.076264,6649.3041 845.412712,6650.51541 C844.375911,6652.42259 845.490472,6654.19575 846.579112,6655.64417 C847.776617,6657.23176 848.979306,6658.9843 851.452076,6658.99977 C855.982895,6659.03069 858.11352,6655.97921 859.907185,6652.59269 C860.19749,6652.036 859.756849,6650.82984 859.274737,6650.20614 C857.683248,6648.12371 855.127534,6648.49999 852.711789,6648 C851.550572,6648.23711 850.042027,6649.03606 848.901546,6648.67524 Z M846.087908,6607.70145 C846.416261,6604.55836 846.697707,6601.85182 847,6598.92957 C842.257123,6598.61116 837.76442,6598.31328 832.985059,6598 C832.64107,6601.102 832.328353,6603.92153 832,6606.93108 C836.83148,6607.77335 841.433634,6608.39477 846.087908,6607.70145 Z M785,6579.0595 C785.803993,6580.91908 786.586689,6582.78402 787.401331,6584.62753 C789.254243,6588.82901 789.259567,6588.85581 793.588353,6588.96835 C795.995008,6589.03266 798.406988,6588.97907 801,6588.97907 C800.446256,6585.41531 799.919135,6582.03376 799.381364,6578.59326 C793.183694,6577.67151 788.929451,6577.82156 785,6579.0595 Z M816.49354,6659.44745 C818.395193,6658.31578 820.036563,6656.62099 819.99938,6654.26561 C819.967509,6652.22428 818.533302,6650.66486 816.727263,6649.77144 C815.802996,6649.3166 814.687501,6649.17582 813.641061,6649.08919 C807.463345,6648.60187 805.349217,6650.02593 804,6655.48933 C807.728939,6662.11688 812.467136,6661.84615 816.49354,6659.44745 Z M833,6579 L833,6590.08223 C837.815129,6590.38462 842.645908,6590.6817 847.721878,6591 C848.165308,6587.21751 848.561787,6583.83289 849,6580.06101 C843.532768,6579.70027 838.456798,6579.36605 833,6579 Z M825.14263,6590 C825.401958,6586.65084 825.687748,6583.03026 826,6579 L806,6579 C806.788568,6582.57449 807.550675,6586.02607 808.423922,6590 L825.14263,6590 Z M867.554103,6574.76269 C868.70666,6566.03503 870.393199,6557.70336 875.516259,6550 C879.047946,6550.33791 882.812258,6550.74974 886.587145,6551.05598 C888.321266,6551.19326 890.081823,6551.0507 891.821231,6551.16158 C893.105962,6551.24605 894.549301,6551.22493 895.611979,6551.811 C896.864987,6552.49739 898.451074,6553.38441 897.880083,6555.39077 C897.351387,6557.25457 895.025127,6558.85966 893.222275,6558.6115 C889.463249,6558.09935 885.70951,6557.55024 881.945197,6557.05393 C879.708815,6556.75298 879.053233,6557.05921 878.577406,6559.15005 C877.223946,6565.05825 875.822902,6570.96117 874.786659,6576.92745 C872.650729,6589.21903 870.604677,6601.52646 868.822973,6613.87084 C868.347147,6617.17078 867.823738,6620.39151 866.782208,6623.5436 C866.285234,6625.05365 865.946869,6626.43699 866.480851,6628.23743 C866.856225,6629.49404 865.714242,6631.5268 864.715008,6632.78341 C863.276956,6634.59442 862.86986,6636.4899 862.705965,6638.67577 C862.600225,6640.13302 861.923495,6641.54803 861.46353,6643.12144 C862.515634,6643.97678 863.678764,6644.943 864.863043,6645.8881 C868.193825,6648.53861 868.891703,6652.33485 866.618312,6655.85126 C865.650799,6657.35603 864.598695,6658.80272 863.573025,6660.26525 C863.303391,6660.65068 863.049617,6661.05723 862.711251,6661.36875 C858.243774,6665.5821 848.885861,6666.35296 844.291497,6662.44056 C840.51661,6659.21983 838.851219,6654.74248 838.972819,6649.72659 C839.004541,6648.46997 839.290036,6647.21336 839.496228,6645.67163 C834.008367,6645.88282 828.737272,6646.07818 823.413307,6646.27882 C824.412542,6648.35909 825.628542,6650.16482 826.162524,6652.15534 C827.362663,6656.58516 825.448785,6660.34973 822.144438,6662.91047 C817.454908,6666.54832 812.051639,6668.59692 806.204265,6665.4501 C802.154457,6663.26951 798.178666,6660.97803 797.179432,6655.69286 C796.507988,6652.15006 797.829727,6649.50483 799.664301,6646.87016 C799.45811,6645.91978 799.066875,6644.99052 799.098597,6644.07182 C799.16204,6642.42978 799.77004,6641.22596 801.699779,6640.76661 C804.993553,6639.99047 808.282039,6640.4815 811.570526,6640.3759 C819.50096,6640.11718 827.426107,6639.66311 835.361828,6639.35688 C837.127671,6639.29352 838.909375,6639.65255 840.675219,6639.57863 C843.027914,6639.48888 845.370036,6639.16152 847.712157,6638.92921 C849.012748,6638.80249 850.302766,6638.58601 851.603357,6638.51738 C854.088226,6638.39066 855.970383,6636.40542 856.123704,6633.64932 C856.213583,6632.05479 854.527044,6630.60282 852.253652,6630.12763 C847.780888,6629.19837 843.26054,6629.09805 838.719045,6629.00829 C832.226663,6628.88157 825.744855,6628.37999 819.252473,6628.26383 C814.451917,6628.17407 809.646074,6628.50142 804.840231,6628.54366 C801.044196,6628.57006 797.623536,6627.16561 794.366771,6625.37573 C793.816928,6625.07477 793.409832,6624.30919 793.177206,6623.67032 C790.639467,6616.64279 788.054145,6609.63109 785.675015,6602.54548 C784.395572,6598.72812 783.63425,6594.7418 782.375955,6590.91916 C781.577624,6588.49569 780.319329,6586.22533 779.235503,6583.90218 C778.833694,6583.03628 778.294425,6582.2443 777.90319,6581.37839 C775.576929,6576.2305 777.85032,6572.55042 783.502076,6572.43954 C788.159885,6572.3445 792.844128,6572.67713 797.480788,6572.34978 C806.627222,6571.70035 815.768369,6572.26002 824.909516,6572.19666 C828.82715,6572.17026 832.760646,6572.67185 836.683567,6572.95169 C840.490175,6573.22624 844.296784,6573.63279 848.108679,6573.75951 C849.393409,6573.79647 850.699287,6573.14176 852.465131,6572.68241 C856.747565,6575.60747 862.097965,6574.16078 867.554103,6574.76269 Z" id="Fill-58"></path>
        </g>
    </g>
</svg>