<?xml version="1.0" encoding="UTF-8"?>
<svg width="1178px" height="619px" viewBox="0 0 1178 619" version="1.1" xmlns="http://www.w3.org/2000/svg" xmlns:xlink="http://www.w3.org/1999/xlink">
    <!-- Generator: Sketch 60.1 (88133) - https://sketch.com -->
    <title>Group 6 Copy</title>
    <desc>Created with Sketch.</desc>
    <g id="PL" stroke="none" stroke-width="1" fill="none" fill-rule="evenodd">
        <g id="Group-6-Copy">
            <path d="M0.189918785,428.390062 C1.06435804,353.996541 -2.0510618,279.44889 2.81323654,205.2095 C17.0722881,-12.4135197 385.335585,-21.2464031 394.778697,215.775222 C397.211911,276.848787 379.527896,306.07808 344.320456,361.059707 C321.020428,397.44615 274.446015,415.462099 236.543884,427.6702 C180.017871,445.876967 62.6829762,434.722005 19.8531944,433.533595 L0.189918785,428.390062 Z" id="Mask" fill="#E6F2EF" transform="translate(197.500000, 239.000000) scale(-1, 1) translate(-197.500000, -239.000000) "></path>
            <path d="M561.296658,604.053891 C562.662554,488.351405 557.79619,372.409203 565.394347,256.946433 C587.667346,-81.5175092 1162.90394,-95.2550841 1177.65432,273.379051 C1181.45506,368.365324 1153.83218,413.824953 1098.83727,499.33658 C1062.44204,555.927556 989.691623,583.947334 930.487535,602.934306 C842.192472,631.250861 658.912396,613.901812 592.011192,612.053506 L561.296658,604.053891 Z" id="Mask" fill="#F0E8F7"></path>
        </g>
    </g>
</svg>