<?xml version="1.0" encoding="UTF-8"?>
<svg width="192px" height="193px" viewBox="0 0 192 193" version="1.1" xmlns="http://www.w3.org/2000/svg" xmlns:xlink="http://www.w3.org/1999/xlink">
    <!-- Generator: Sketch 60.1 (88133) - https://sketch.com -->
    <title>Group 18</title>
    <desc>Created with Sketch.</desc>
    <g id="PL" stroke="none" stroke-width="1" fill="none" fill-rule="evenodd">
        <g id="Icons" transform="translate(-1186.000000, -2850.000000)">
            <g id="Group-18" transform="translate(1186.000000, 2850.000000)">
                <path d="M0.0923149535,188.339904 C0.517358843,152.264654 -0.99697181,116.114663 1.36744662,80.1141544 C8.29842867,-25.4166063 187.30236,-29.6998889 191.89243,85.2377333 C193.075157,114.853809 184.479382,129.027813 167.365893,155.689758 C156.040309,173.33444 133.401607,182.070817 114.978293,187.990826 C87.5023576,196.819735 30.4686872,191.41042 9.65016029,190.83413 L0.0923149535,188.339904 Z" id="Mask-Copy-3" fill="#F0E8F7" transform="translate(96.000000, 96.500000) scale(-1, 1) translate(-96.000000, -96.500000) "></path>
                <g id="account-created" transform="translate(32.000000, 18.000000)" fill-rule="nonzero">
                    <g id="Group-3" transform="translate(0.500000, 0.000000)" fill="#A36ECE">
                        <g id="Fill-1-Clipped">
                            <path d="M39.0292386,68.3072547 C39.0362507,64.715208 38.3280263,61.5005358 37.1499897,58.1670605 C34.7728802,51.4302258 32.9988132,44.4767501 31.1195643,37.5721933 C30.5585945,35.5106101 30.5305461,33.3162469 30.2009763,31.1847795 C29.3454973,25.7268252 30.3482309,20.4645466 32.8375344,15.6984457 C35.9719531,9.67442955 40.6069661,5.05508539 47.5209189,3.23110835 C48.5587131,2.95856006 49.4282163,2.05705417 50.4730225,1.74257537 C52.8431199,1.02975675 55.2693143,0.023424591 57.6814845,-6.36646291e-12 C61.1314487,-0.0185059157 64.7707403,0.205123453 68.0243652,1.26736296 C75.8428818,3.82512386 82.5955558,8.01118611 85.2321139,16.4601832 C86.725696,21.2542378 88.4787266,26.1181766 88.8924418,31.0519995 C89.5726177,39.1166337 87.2165445,46.6152059 81.8312344,52.8977935 C79.8958886,55.1550525 77.6800579,57.1747052 75.569409,59.2852074 C72.2877357,62.5767522 71.8109114,64.498567 73.1712631,69.7887993 C79.916925,72.0390698 86.8589263,74.2054793 93.6957458,76.6863677 C97.9380799,78.2377964 101.93499,80.2854028 105.27276,83.5699592 C111.457452,89.6568711 115.917162,96.6732425 118.876278,104.828726 C120.103399,108.232086 122.536606,111.202163 124.5,114.493708 C124.233539,117.980928 122.031733,120.531701 119.01652,122.474481 C112.439149,126.730427 105.798669,130.78371 98.3588072,133.600042 C93.2469699,135.535834 88.2613508,137.625371 82.8970771,138.701587 C82.2870224,138.827379 81.7120284,139.190776 81.0949616,139.26066 C75.8218454,139.854676 70.5417172,140.700275 65.2475647,140.89595 C60.114691,141.077649 54.8626112,141.105603 49.813883,140.266993 C40.3545297,138.701587 30.8671279,137.227031 21.9056354,133.29954 C15.6297857,130.546103 10.7633727,125.800968 4.76099578,122.69811 C2.68540751,121.621894 0.869267778,119.161971 1.85797705,115.961276 C2.18053469,114.906024 1.62657701,113.571237 1.44426182,112.369229 C1.12871631,110.384518 0.329334344,108.364865 0.532685897,106.436062 C1.50035881,97.1554433 5.20977162,89.0488787 11.8572638,82.395905 C12.7197548,81.5293412 13.8837672,80.9143604 14.9916825,80.3482986 C21.1202776,77.1965221 27.2699091,74.0936647 33.4265527,70.9908072 C35.2356803,70.0823128 37.0868806,69.2367143 39.0292386,68.3072547" id="Fill-1"></path>
                        </g>
                    </g>
                    <g id="Group-14-Copy" transform="translate(104.000000, 10.000000)" fill="#722A83">
                        <g id="Group-3">
                            <g id="Fill-1-Clipped">
                                <path d="M5.6555316,23.6570137 C6.00104721,28.2234579 6.35044501,31.7924536 9.06410127,34.5744 C10.4073417,35.9458918 11.6535272,37.4186869 13.0666472,38.7044605 C14.0876652,39.6395685 15.2523246,40.4499955 16.4558059,41.11626 C19.6819123,42.9124467 23.2845918,43.3215564 26.8562138,43.2942825 C28.9758938,43.2786973 31.3479167,42.9241355 33.1531386,41.9111018 C35.8435017,40.387655 38.3630481,38.3849653 39.7606393,35.384827 C40.1294481,34.5977777 40.7040134,33.9120318 41.1465839,33.1561528 C44.5551536,27.3234164 44.7531457,21.4634061 41.1970525,15.6267734 C40.3468512,14.2280076 39.3374797,12.8915824 38.2271712,11.6915271 C37.1129804,10.4836792 35.8862059,9.31869041 34.5235545,8.42644149 C32.6717461,7.20690475 30.4472468,6.80948384 28.312038,6.36530752 C26.545638,5.99516059 24.5579527,5.48085117 22.9235474,5.94061262 C18.8627685,7.08222368 15.3338507,9.38492723 12.1620951,12.2019402 C11.7428178,12.5720871 11.0750797,12.9889895 10.5975694,12.9149601 C8.45071402,12.5759834 7.68592105,14.0760525 7.29770127,15.5839143 C6.53679051,18.5411934 6.06316237,21.5686057 5.6555316,23.6570137 M1.04736281,24.1713231 C0.694082813,19.6438417 2.26637292,15.1163602 4.40158171,10.8226558 C5.44977512,8.71087018 7.58498391,7.42509663 9.74348589,6.36530752 C11.0168468,5.73410959 12.1853883,4.89640864 13.4276916,4.1989739 C18.0902112,1.59236024 22.6090894,-1.19737874 28.4362683,0.785829559 C32.1243562,2.04043284 35.8784415,2.96385203 38.9803175,5.50033258 C41.4804529,7.53808885 43.5302534,9.93819948 45.4053549,12.5603983 C49.1477936,17.7892107 49.6951835,23.4388218 48.2898279,29.5520906 C47.0281136,35.0809169 44.582329,39.9902341 40.4788459,43.8007993 C36.8062868,47.2061511 32.2330578,49.0296118 27.1202033,48.9992179 C19.2859281,48.9555824 12.7638358,45.9944069 7.67815666,39.9512712 C6.89007051,39.0161632 5.89234567,38.2602842 5.16249248,37.2940059 C1.68404325,32.7002876 1.22206171,31.1963222 1.04736281,24.1713231" id="Fill-1"></path>
                            </g>
                        </g>
                        <path d="M38,22.6029095 C37.8790849,23.8048224 37.7854733,24.6263832 37.7074636,25.4479439 C37.574847,26.855247 37.0560824,27.4029542 35.4997886,27.3877401 C33.4013272,27.3687225 31.3067662,27.197564 29.2083048,27.1138865 C28.3853023,27.0796548 27.5583993,27.110083 26.5325715,27.110083 C26.7041929,28.3918699 26.6456856,29.3807856 26.9850279,30.2137569 C27.5349964,31.5564001 27.0435352,32.6860461 26.544273,33.8271027 C26.0294088,35.002391 25.1947049,35.2876551 23.9699523,34.7133233 C22.4643648,34.0020647 21.567253,32.8343835 21.4697409,31.1342092 C21.3956316,29.9665279 21.2318112,28.8026502 21.1108962,27.6083443 C19.5741047,27.1024759 18.4468643,27.5170598 17.296221,28.2891748 C16.1065728,29.0841109 14.6165872,29.0384686 13.6804706,28.1066057 C12.8301646,27.2622239 12.2411913,25.9652229 12.030565,24.7823276 C11.8550432,23.8124295 12.4323151,22.8235138 13.844291,22.7094081 C15.5839077,22.5724813 17.3079224,22.2605925 19.0475391,22.0475953 C20.9236728,21.8117769 21.0250855,21.7014748 20.8339617,19.8567667 C20.7442505,19.0047778 20.6194349,18.1489853 20.596032,17.2931929 C20.5648281,16.0190131 21.3527263,15.1518101 22.5735784,15.0186868 C23.9660518,14.8627424 25.3741272,15.6995172 25.5379476,16.9052337 C25.6783651,17.9245775 25.6237583,18.962939 25.6783651,19.9936935 C25.7329719,21.0700902 26.0879161,21.7166889 27.4374842,21.6786537 C29.9337952,21.6101903 32.4379071,21.6596361 34.9303176,21.819384 C35.9873493,21.8878474 37.0248785,22.3404665 38,22.6029095" id="Fill-4"></path>
                    </g>
                </g>
            </g>
        </g>
    </g>
</svg>