<?xml version="1.0" encoding="UTF-8"?>
<svg width="79px" height="54px" viewBox="0 0 79 54" version="1.1" xmlns="http://www.w3.org/2000/svg" xmlns:xlink="http://www.w3.org/1999/xlink">
    <!-- Generator: Sketch 60.1 (88133) - https://sketch.com -->
    <title>Group 3 Copy 3</title>
    <desc>Created with Sketch.</desc>
    <g id="Design-ideas" stroke="none" stroke-width="1" fill="none" fill-rule="evenodd">
        <g id="Landing---Mobile" transform="translate(-107.000000, -2826.000000)" fill="#3F5385">
            <g id="Group-3-Copy-3" transform="translate(107.000000, 2826.000000)">
                <path d="M14.1870928,22.2767466 C13.2669214,19.6966822 12.5801857,17.033649 11.8527346,14.3893506 C11.635585,13.5998081 11.6247275,12.7594137 11.4971521,11.943107 C11.165999,9.85282667 11.5541539,7.83748593 12.5177552,6.01217068 C13.7310786,3.70510068 15.5252772,1.93599015 18.201646,1.23744575 C18.6033728,1.13306555 18.9399547,0.787807978 19.3443958,0.667369289 C20.2618529,0.394374926 21.2010249,0.00897111997 22.1347682,0.000941874006 C23.4702382,-0.00708737196 24.8789963,0.0785579183 26.1384639,0.485373047 C29.1649865,1.46494105 31.7789248,3.06811383 32.7995279,6.30389995 C33.3776888,8.13992086 34.0562813,10.0027059 34.2164291,11.8922551 C34.479723,14.9808384 33.5676947,17.8526321 31.4830585,20.2587294 C30.7338924,21.1232116 29.8761514,21.8966956 29.0591261,22.704973 C27.7888009,23.9655647 27.6042237,24.7015789 28.1308115,26.7276253 C30.7420355,27.589431 33.4292618,28.4191197 36.0757725,29.3692472 C37.7179664,29.9634114 39.2651573,30.7476011 40.5571974,32.0055163 C42.9512718,34.336674 44.6776111,37.023795 45.8230753,40.1471717 C46.29809,41.4505859 47.2399764,42.5880625 48,43.8486541 C47.8968539,45.1841853 47.0445418,46.1610769 45.8773627,46.9051204 C43.3312836,48.5350573 40.7607752,50.0873782 37.8808286,51.1659736 C35.9020529,51.9073406 33.9721358,52.7075888 31.8956427,53.1197567 C31.6594925,53.1679322 31.4369142,53.3071058 31.1980496,53.33387 C29.1568434,53.5613653 27.1129228,53.8852115 25.0635734,53.9601511 C23.0766546,54.0297379 21.0435914,54.0404436 19.089245,53.7192738 C15.4275599,53.1197567 11.7550173,52.5550331 8.28605239,51.0508877 C5.85669124,49.9963801 3.97291845,48.1790941 1.64941772,46.9907657 C0.845964198,46.5785977 0.142942366,45.6364995 0.525668537,44.4107013 C0.650529557,44.0065626 0.436094327,43.4953672 0.365520706,43.0350238 C0.243374056,42.2749219 -0.066064125,41.5014378 0.0126526052,40.7627472 C0.387235667,37.2084677 1.8231374,34.1038259 4.39636017,31.5558785 C4.73022768,31.224003 5.1808131,30.9884785 5.60968356,30.7716888 C7.98204295,29.5646255 10.3625455,28.3762971 12.7457623,27.1879687 C13.4460698,26.8400347 14.1626635,26.5161885 14.914544,26.1602252 C14.9172583,24.7845477 14.643107,23.5533967 14.1870928,22.2767466 Z" id="Fill-1"></path>
                <path d="M40.457272,15.564443 C40.4586292,14.8511229 40.3215535,14.212743 40.0935464,13.5507709 C39.6334607,12.2129488 39.2900929,10.8321054 38.9263673,9.46097653 C38.8177925,9.05158076 38.8123638,8.61581712 38.7485761,8.19254353 C38.5829995,7.10868557 38.7770769,6.06368552 39.2588776,5.11721801 C39.8655393,3.92094968 40.7626386,3.0036256 42.100823,2.64141443 C42.3016864,2.58729092 42.4699773,2.408267 42.6721979,2.3458168 C43.1309264,2.20426301 43.6005124,2.00442236 44.0673841,2 C44.7351191,1.99609567 45.4394981,2.0405047 46.069232,2.25144761 C47.5824933,2.75937592 48.8894624,3.5906575 49.399764,5.26848627 C49.6888444,6.22050491 50.0281406,7.18640138 50.1082145,8.16617566 C50.2398615,9.76767641 49.7838473,11.2567668 48.7415292,12.5043831 C48.3669462,12.9526367 47.9380757,13.3537058 47.529563,13.7728161 C46.8944005,14.4264615 46.8021119,14.8081016 47.0654058,15.8586528 C48.3710177,16.3055187 49.7146309,16.7357312 51.0378863,17.2283939 C51.8589832,17.5364816 52.6325787,17.9431018 53.2785987,18.5953595 C54.4756359,19.8041178 55.3388056,21.1974512 55.9115376,22.8169931 C56.149045,23.4928431 56.6199882,24.0826506 57,24.736296 C56.948427,25.4287994 56.5222709,25.9353399 55.9386813,26.3211434 C54.6656418,27.1663028 53.3803876,27.9712165 51.9404143,28.5304928 C50.9510264,28.9149085 49.9860679,29.3298554 48.9478214,29.5435738 C48.8297463,29.5685539 48.7184571,29.6407186 48.5990248,29.6545964 C47.5784217,29.7725579 46.5564614,29.9404796 45.5317867,29.9793375 C44.5383273,30.0154198 43.5217957,30.0209709 42.5446225,29.8544371 C40.7137799,29.5435738 38.8775086,29.2507518 37.1430262,28.4708181 C35.9283456,27.9240319 34.9864592,26.9817277 33.8247089,26.3655524 C33.4229821,26.1518339 33.0714712,25.6633346 33.2628343,25.0277303 C33.3252648,24.8181752 33.2180472,24.5531088 33.1827604,24.3144102 C33.121687,23.9202801 32.9669679,23.519211 33.0063263,23.1361831 C33.1936178,21.2932082 33.9115687,19.6833808 35.1981801,18.362212 C35.3651138,18.190127 35.5904066,18.0680022 35.8048418,17.9555918 C36.9910215,17.329702 38.1812727,16.7135267 39.3728812,16.0973514 C39.7230349,15.9169397 40.0813317,15.749018 40.457272,15.564443" id="Fill-1"></path>
                <path d="M55.5644686,29.3779446 C55.5663913,28.3589243 55.3722008,27.4469605 55.0491907,26.5012938 C54.3974026,24.590135 53.9109649,22.6175178 53.395687,20.6587782 C53.2418727,20.0739319 53.234182,19.4514176 53.1438161,18.846746 C52.9092493,17.2983901 53.1841923,15.8055451 53.8667433,14.4534598 C54.7261807,12.744519 55.9970714,11.4340668 57.8928326,10.9166265 C58.1773891,10.8393078 58.4158012,10.5835615 58.7022804,10.4943476 C59.3521458,10.2921296 60.0173926,10.0066453 60.6787941,10.0003277 C61.6247521,9.99475009 62.6226224,10.0581911 63.5147453,10.3595356 C65.6585321,11.0851415 67.5100718,12.2726769 68.232999,14.6695555 C68.6425295,16.029571 69.1231992,17.4094118 69.2366373,18.8090779 C69.4231371,21.0969174 68.7771171,23.2241719 67.3004998,25.0064662 C66.7698404,25.6468234 66.1622739,26.2197745 65.5835476,26.8184985 C64.683734,27.7522701 64.5529918,28.2974658 64.9259915,29.7982409 C66.7756085,30.4366156 68.6790604,31.0511998 70.5536722,31.7549979 C71.7168929,32.1951195 72.8128198,32.7760008 73.7280148,33.7077898 C75.4238175,35.4345733 76.6466412,37.4250333 77.4580116,39.7386457 C77.7944804,40.7041377 78.4616499,41.5467129 79,42.4804845 C78.9269382,43.4697669 78.3232171,44.1933903 77.4964652,44.7445336 C75.6929925,45.9518943 73.8722158,47.1017616 71.8322536,47.9007212 C70.4306208,48.4498819 69.0635962,49.0426584 67.5927469,49.347968 C67.4254739,49.3836535 67.2678142,49.486745 67.0986185,49.5065703 C65.6527641,49.6750854 64.204987,49.9149715 62.7533645,49.9704823 C61.3459637,50.0220281 59.9058773,50.0299582 58.5215486,49.7920546 C55.9278549,49.347968 53.3264706,48.9296542 50.8692871,47.8154724 C49.1484896,47.0343556 47.8141506,45.6882178 46.1683376,44.8079746 C45.5992246,44.502665 45.1012508,43.8048144 45.3723485,42.8968158 C45.4607918,42.5974538 45.3089001,42.2187906 45.2589105,41.8777954 C45.17239,41.3147569 44.9532046,40.7418058 45.0089623,40.1946276 C45.2742919,37.5618279 46.291389,35.2620932 48.1140885,33.3747248 C48.3505779,33.1288911 48.6697426,32.9544285 48.9735259,32.7938436 C50.6539471,31.8997226 52.3401364,31.0194793 54.0282483,30.1392361 C54.5242994,29.8815072 55.0318866,29.6416211 55.5644686,29.3779446" id="Fill-1"></path>
            </g>
        </g>
    </g>
</svg>