<?xml version="1.0" encoding="UTF-8"?>
<svg width="88px" height="96px" viewBox="0 0 88 96" version="1.1" xmlns="http://www.w3.org/2000/svg" xmlns:xlink="http://www.w3.org/1999/xlink">
    <!-- Generator: Sketch 60.1 (88133) - https://sketch.com -->
    <title>Group 10</title>
    <desc>Created with Sketch.</desc>
    <g id="PL" stroke="none" stroke-width="1" fill="none" fill-rule="evenodd">
        <g id="Icons" transform="translate(-479.000000, -2315.000000)">
            <g id="Group-10" transform="translate(470.000000, 2307.000000)">
                <path d="M46.5980062,9.48130646 C47.4460039,7.43006517 50.2311375,7.60369047 52.2212699,9.4198655 C54.0338922,11.059429 65.3322806,18.1192199 67.5657361,18.9833943 C67.8874738,19.1073239 68.2268319,19.2187175 68.4958954,19.4233937 C68.6147346,19.5128449 68.7222161,19.6113247 68.8189401,19.7175744 C68.8809128,19.7257199 68.9411036,19.7331194 69.0003386,19.7405533 C69.0661505,19.9228663 69.1419387,20.1177498 69.2166565,20.3112646 C69.2926127,20.4666192 69.3535413,20.6298837 69.4013774,20.7991571 C69.5485108,21.2138423 69.6409308,21.557379 69.5454545,21.6637252 L69.5359515,21.6765416 C69.5515301,22.0583281 69.5177167,22.4504643 69.4440076,22.833031 C69.3363763,23.3987116 69.1330339,23.8265404 68.8623404,24.1730012 C68.8609557,24.1791317 68.8606984,24.1866006 68.8604482,24.1940838 L68.8545455,24.4621564 L68.27156,24.7497349 C67.7889506,25.1217121 67.2097673,25.4046855 66.6117232,25.7534335 C63.2368941,27.7150817 52.4677201,32.9288898 49.3259475,35.2573033 C47.1636668,36.8589004 45.117355,37.3760879 42.6984488,36.071336 C41.7416989,34.4353216 42.6478251,32.9352126 43,31.8458549 C45.6685567,30.2853506 50.3328599,27.3434271 54.1559688,24.9754141 L54.3889109,25.0118409 C50.3235353,24.3214583 46.3062448,25.6663596 42.4812947,28.0244198 C40.6365759,29.1586199 38.6213736,30.0059077 36.7460552,31.1087268 C34.5428839,32.404315 32.1823432,33.5743791 30.2982821,35.2734377 C27.3432349,37.9318593 24.7072978,40.9668532 21.9751906,43.8808059 C19.6671064,46.3464583 18.6310913,49.6593985 16.6902023,52.4119631 C15.4705897,54.1513687 15.1777078,56.7873753 15.0247098,59.0602584 C14.7842843,62.5435527 16.3230071,77.480923 18.5655207,80.9193873 C20.0255589,83.1564064 21.0965449,85.868624 23.0286911,87.5407846 C28.8994432,92.6155454 35.3297308,96.6861133 43.2768843,97.6230612 C49.0951799,98.3134439 54.7211351,98.0937766 60.3733186,96.340922 C68.0538185,93.9649297 74.589019,89.7015926 80.800738,84.6492468 C84.1054949,81.9639273 86.0201557,78.3371768 87.4801938,74.6476643 C89.3686263,69.8732647 90.9816624,64.9867901 91.0001834,59.5175249 C91.012262,54.384485 89.8026592,47.7720324 88.1796132,45.0912171 C85.5404701,40.7320951 85.5233279,39.5170822 83.917419,37.8836125 C83.7787193,37.6309925 83.4729475,37.2885024 83,36.8565594 C82.4758013,36.5199398 81.9841939,36.2029098 81.5251777,35.9054694 C81.1931865,35.6613437 80.8264295,35.3988997 80.4217847,35.1144909 C79.9409338,34.7692996 79.528936,34.101185 79,33.8501367 L77.7674936,33.4076353 C77.4362109,33.1757373 77.1803796,32.9891908 77,32.8479958 C75.8010779,31.9095211 75.0177733,29.9845769 75,29.8415731 C74.6545455,27.0620502 76.3731224,27.1492602 77,26.8351504 C78.114128,26.2768938 79.6937364,26.6515911 81.7388252,27.9592424 C83.5021795,29.5610018 85.1381053,31.0337493 86.514399,31.9770142 C88.3749135,33.2503953 87.9370436,33.7538804 89.6088739,35.2988569 C90.4864751,36.1136427 91.4693884,36.8749999 92.1144253,37.8589763 C95.2123574,42.5473341 94.2181415,43.1959617 95.5740353,48.8994626 C96.6842008,53.5522014 96.6008287,58.1871306 96.9343172,62.8443218 C97.1273894,65.5736318 96.9167651,68.1604655 96.0084479,70.7116802 C95.9470158,70.8942278 96.065492,71.188085 95.9645678,71.2949422 C93.9460851,73.3563949 94.4989739,76.5487525 92.7525475,78.7571338 C92.2347628,79.4071815 92.2215988,80.4490388 91.8573943,81.2593722 C91.3308336,82.4258962 90.9271371,83.7794202 90.0626999,84.6298251 C87.9564571,86.7135397 85.670306,88.6147067 83.3622149,90.4713498 C81.207704,92.2077787 78.9347169,93.7972789 76.6968339,95.4357553 C76.2229293,95.7874935 75.7402486,96.201565 75.1961359,96.3752079 C72.0060556,97.3903509 69.320596,99.4740655 66.2840959,100.729637 C63.2256558,101.998566 59.9609794,103.049328 56.691915,103.458947 C52.3609531,104.011042 47.9334552,103.868566 43.5498373,103.997685 C42.9662325,104.011042 42.3343596,103.970971 41.7990229,103.761709 C37.5777612,102.109875 33.0054591,101.348518 29.1132978,98.8640892 C22.9174335,94.9148267 17.7790786,90.0839926 13.7157851,83.6413964 C12.0217952,79.8101531 10.8498669,76.5686425 10.2,73.9168646 C9.80649659,72.3111762 9.41336951,69.1664875 9.02061876,64.4827983 C9.00306674,60.4044167 8.77927844,56.2414399 10.3501846,52.3901298 C11.7762865,48.8905578 13.658741,45.5824383 15.1813791,42.1184854 C16.0633682,40.1104612 17.340278,38.1603181 19.2139565,37.6126751 C23.7730946,36.2725083 25.8749495,32.220841 28.9509416,29.2956263 C31.9303976,26.4639116 34.7957655,23.6366492 38.8283429,22.4389586 C39.1091753,22.3588157 39.4294997,22.2564109 39.613796,22.0560537 C42.0666913,19.3534581 45.5244399,19.6606724 48.6355361,18.9527437 C49.7720296,18.6900532 50.9787313,18.6811485 52.0888968,18.3516722 C52.830634,18.1290281 53.5612208,17.9742683 54.2886389,17.8902212 C52.0664302,16.0036729 49.6761885,14.2075943 49,13.8073186 C47.7262323,13.0592345 46.0477381,10.8214408 46.5980062,9.48130646 Z" id="Combined-Shape" fill="#A36ECE"></path>
                <rect id="Rectangle" x="0" y="0" width="106" height="111"></rect>
            </g>
        </g>
    </g>
</svg>