<?xml version="1.0" encoding="UTF-8"?>
<svg width="33px" height="27px" viewBox="0 0 33 27" version="1.1" xmlns="http://www.w3.org/2000/svg" xmlns:xlink="http://www.w3.org/1999/xlink">
    <!-- Generator: Sketch 60.1 (88133) - https://sketch.com -->
    <title>Group 5</title>
    <desc>Created with Sketch.</desc>
    <g id="PL" stroke="none" stroke-width="1" fill="none" fill-rule="evenodd">
        <g id="Icons" transform="translate(-915.000000, -2014.000000)" fill="#3F5385">
            <g id="Group-5" transform="translate(915.000000, 2014.000000)">
                <path d="M14.9426308,10.3745294 C16.7708266,10.3745294 18.8577748,10.4948692 20.9277954,10.3433302 C23.4427736,10.1628205 25.6071058,11.1946228 27.9020234,11.7762651 C28.559787,11.9411752 28.9926534,12.4492765 29,13.135659 C29.0071629,13.8086705 28.5839694,14.2833441 27.9914986,14.5908791 C27.6263431,14.7803028 27.1668759,14.9385274 26.7606102,14.9162422 C25.1355474,14.8293302 23.4983933,15.266119 21.8757487,14.7201329 C21.2832779,14.5217951 20.5795676,14.5752795 19.9266406,14.5663654 C14.7902812,14.4905959 9.6515036,14.4081409 4.51514424,14.3724847 C3.07386826,14.3635706 1.67128425,14.3635706 0.483924344,13.4454226 C-0.00456181001,13.0665751 -0.198021673,12.2241965 0.259027253,11.8498061 C1.12717839,11.1344529 1.90585434,10.3789864 3.25523688,10.2363615 C7.08090567,9.82631476 10.882392,10.0001389 14.9426308,10.3745294" id="Fill-4"></path>
                <path d="M16.3589429,25.6706333 C11.9923714,25.8246333 7.6258,25.9833 3.25922857,26.1326333 C2.93622857,26.1419667 2.60594286,26.1349667 2.28294286,26.0906333 C1.3528,25.9599667 0.619371429,25.0989667 0.544085714,24.0816333 C0.483371429,23.2719667 1.14394286,22.5299667 2.18094286,22.4646333 C4.25494286,22.3339667 6.3338,22.2336333 8.41265714,22.2289667 C15.4142286,22.2149667 22.4206571,22.2523 29.4246571,22.2453 C30.3329429,22.2429667 31.1440857,22.3946333 31.8920857,22.9056333 C32.7882286,23.5193 32.8100857,24.5739667 31.9673714,25.3066333 C31.3310857,25.8573 30.5952286,25.8736333 29.8205143,25.8713 C26.3209429,25.8503 22.8165143,25.8409667 19.3145143,25.8316333 C18.3309429,25.8269667 17.3473714,25.8293 16.3638,25.8293 C16.3613714,25.7779667 16.3613714,25.7219667 16.3589429,25.6706333" id="Fill-6"></path>
                <path d="M1.83209587,3.99303454 C1.07404292,3.16240324 0.781376912,2.21684183 1.1747968,0.910817787 C2.22311685,0.111531071 3.5401139,0.210788898 4.81632962,0.205564802 C10.0267442,0.179444321 15.2347598,0.197728658 20.4451744,0.168996129 C22.505831,0.158547936 24.5688865,0.108919023 26.6271442,0.00966119499 C28.0209061,-0.0608641036 29.2131602,0.231685283 30,1.65525149 C29.6713505,3.11799843 28.8053469,3.80496708 27.435574,3.81541527 C20.8385943,3.87026828 14.2392156,3.93818153 7.63983696,3.99303454 C5.69672656,4.00870683 3.75841396,3.99303454 1.83209587,3.99303454" id="Fill-11"></path>
            </g>
        </g>
    </g>
</svg>