<?xml version="1.0" encoding="UTF-8"?>
<svg width="192px" height="193px" viewBox="0 0 192 193" version="1.1" xmlns="http://www.w3.org/2000/svg" xmlns:xlink="http://www.w3.org/1999/xlink">
    <!-- Generator: Sketch 60.1 (88133) - https://sketch.com -->
    <title>Group 14</title>
    <desc>Created with Sketch.</desc>
    <g id="PL" stroke="none" stroke-width="1" fill="none" fill-rule="evenodd">
        <g id="Icons" transform="translate(-925.000000, -2552.000000)">
            <g id="Group-14" transform="translate(925.000000, 2552.000000)">
                <path d="M0.0923149535,188.339904 C0.517358843,152.264654 -0.99697181,116.114663 1.36744662,80.1141544 C8.29842867,-25.4166063 187.30236,-29.6998889 191.89243,85.2377333 C193.075157,114.853809 184.479382,129.027813 167.365893,155.689758 C156.040309,173.33444 133.401607,182.070817 114.978293,187.990826 C87.5023576,196.819735 30.4686872,191.41042 9.65016029,190.83413 L0.0923149535,188.339904 Z" id="Mask-Copy-9" fill="#F0E8F7" transform="translate(96.000000, 96.500000) scale(-1, 1) translate(-96.000000, -96.500000) "></path>
                <path d="M32.4066544,38.3027019 C45.1570845,39.5251115 53.2082012,40.1678877 65.1952901,41.434348 C73.1340385,42.2737604 80.2283383,42.6870338 86.4781897,42.6741682 L93.218412,43.9852038 L100.707548,49.4915532 L106.698857,53.6868671 C111.120855,55.9554522 113.367596,57.9657068 113.439079,59.7176308 C113.510562,61.4695549 112.137554,63.7420165 109.320054,66.5350159 L105.478647,70.9447103 L103.328745,73.0901938 L100.333091,77.0233006 C97.8159778,78.7860316 95.694056,79.6600553 93.9673256,79.6455537 C84.9756928,79.5719537 83.5605056,78.6195348 74.5741372,78.5204205 C71.0732966,78.4873824 51.5879374,77.1099818 47.6175176,76.6926739 C39.6613424,75.8564462 28.032165,76.1279057 27.8316081,73.6075827 C27.6526178,71.5004863 28.2390476,67.7400149 28.318014,65.614564 C28.3706582,64.1425332 28.0600573,62.6668316 27.9126535,61.1911299 C27.5652016,57.8249149 28.191214,54.5668993 27.8858775,51.2006844 C27.7454929,49.663801 28.2568069,46.2617813 29.4198196,40.9946251 L32.4066544,38.3027019 Z" id="Fill-1" fill="#722A83" fill-rule="nonzero" transform="translate(70.619771, 58.974128) scale(-1, 1) rotate(-6.000000) translate(-70.619771, -58.974128) "></path>
                <path d="M43.0402472,84 C53.7559458,85.0098691 58.0314978,85.000052 69.0250816,85.000052 C76.3541374,85.000052 83.1255561,85.1522631 89.3393376,85.4566853 L95.0039458,86.539771 L101.297955,91.0887309 L106.333162,94.5546052 C110.049492,96.4287511 111.937694,98.0894825 111.99777,99.5367993 C112.057846,100.984116 110.903944,102.861465 108.536065,105.168845 L105.307675,108.811825 L103.500858,110.584273 L100.983254,113.83353 C98.8678256,115.289775 97.0845231,116.011882 95.6333467,116 C88.0766113,115.939049 91.5745919,115.80206 84.0222809,115.720179 C81.0801094,115.692885 78.1423621,115.501829 75.2001906,115.383556 C74.8064262,115.368393 74.4038133,115.325936 74.0056247,115.347164 C70.6298699,115.535188 67.2943503,115.926758 63.8783604,115.947627 C55.0332477,116.001663 45.0390806,116.001663 41.0414138,115.001611 C37.043747,114.001559 40.1861368,112.181088 39.9826182,109.66703 C39.8321913,107.926294 40.3940797,106.164331 40.4604445,104.408432 C40.5046877,103.192343 40.2436529,101.973222 40.119772,100.754101 C39.827767,97.9731701 39.5180647,95.195272 39.2614543,92.4143412 C39.1434725,91.1446759 40.4030701,88.3398955 43.0402472,84 Z" id="Fill-1" fill="#722A83" fill-rule="nonzero" transform="translate(75.500000, 100.000000) scale(-1, 1) translate(-75.500000, -100.000000) "></path>
                <path d="M113.681556,172.237573 C113.623383,175.116539 114.692311,178.082747 113.2089,181.066404 C110.852895,185.812336 106.948035,186.885406 103.733978,180.795955 C102.206938,177.89954 101.886986,173.773022 101.748826,170.161227 C101.472504,162.789328 101.705196,155.382532 101.690653,147.993184 C101.661566,139.173077 101.697924,130.352971 101.516134,121.541588 C101.225269,107.60041 100.06181,93.7115774 97.5821867,80.1106412 C94.7826126,64.7823251 96.4571631,49.6546642 93.2794647,34.4397618 C92.7704512,31.9882782 92.2614378,29.5106221 92.0287459,27.0155177 C91.7087946,23.6305509 94.1084295,19.9140667 96.7989293,19.2423078 C99.2640088,18.6228938 105.456654,19.0406495 106.02384,22.2773059 C106.87462,27.1802732 105.088577,34.8410723 106.106604,39.6829707 C107.655459,47.0984908 109.659651,54.681259 110.698454,64.6517062 C113.162673,88.303322 111.354637,91.4345765 112.299948,106.58841 C112.874406,115.783655 113.237987,124.996348 113.819716,136.529663 C113.819716,146.893942 113.986964,159.57012 113.681556,172.237573 Z" id="Fill-4" fill="#A36ECE" fill-rule="nonzero"></path>
                <path d="M102.156541,35 C115.631428,36.3464928 128.344109,37.5150707 141.012283,38.9100858 C149.402097,39.8347045 156.899482,40.2899281 163.504438,40.2757565 L170.627628,41.7198715 L178.542283,47.7851545 L184.874007,52.4063225 C189.547255,54.905185 191.921651,57.1194947 191.997196,59.0492515 C192.072741,60.9790083 190.621721,63.482141 187.644136,66.5586496 L183.584467,71.4159592 L181.312412,73.7792246 L178.14655,78.1115696 C175.486419,80.0532304 173.243933,81.0159737 171.419093,81 C161.916572,80.9189291 166.315249,80.7362775 156.818291,80.6271024 C153.118539,80.5907107 149.424351,80.3359688 145.724599,80.1782715 C145.229444,80.1580539 144.723162,80.1014445 144.222444,80.1297492 C139.977465,80.3804475 128.442043,80.9603374 121.460315,80.5963611 C118.72485,80.4537539 102.33256,81.5564803 101.564792,78.564274 C100.719134,75.2607165 101.694768,75.9083123 101.438845,72.5562325 C101.249685,70.2352509 101.956254,67.8859646 102.039707,65.5447653 C102.095342,63.923313 101.767094,62.2978171 101.611315,60.6723213 C101.244121,56.9644116 100.854674,53.2605454 100.531989,49.5526358 C100.383628,47.8597478 99.8729647,43.9972601 99,37.9651725 L102.156541,35 Z" id="Fill-1" fill="#A36ECE" fill-rule="nonzero"></path>
                <path d="M0.0923149535,188.339904 C0.517358843,152.264654 -0.99697181,116.114663 1.36744662,80.1141544 C8.29842867,-25.4166063 187.30236,-29.6998889 191.89243,85.2377333 C193.075157,114.853809 184.479382,129.027813 167.365893,155.689758 C156.040309,173.33444 133.401607,182.070817 114.978293,187.990826 C87.5023576,196.819735 30.4686872,191.41042 9.65016029,190.83413 L0.0923149535,188.339904 Z" id="Mask-Copy-11" fill="#F0E8F7" transform="translate(96.000000, 96.500000) scale(-1, 1) translate(-96.000000, -96.500000) "></path>
                <path d="M32.4066544,38.3027019 C45.1570845,39.5251115 53.2082012,40.1678877 65.1952901,41.434348 C73.1340385,42.2737604 80.2283383,42.6870338 86.4781897,42.6741682 L93.218412,43.9852038 L100.707548,49.4915532 L106.698857,53.6868671 C111.120855,55.9554522 113.367596,57.9657068 113.439079,59.7176308 C113.510562,61.4695549 112.137554,63.7420165 109.320054,66.5350159 L105.478647,70.9447103 L103.328745,73.0901938 L100.333091,77.0233006 C97.8159778,78.7860316 95.694056,79.6600553 93.9673256,79.6455537 C84.9756928,79.5719537 83.5605056,78.6195348 74.5741372,78.5204205 C71.0732966,78.4873824 51.5879374,77.1099818 47.6175176,76.6926739 C39.6613424,75.8564462 28.032165,76.1279057 27.8316081,73.6075827 C27.6526178,71.5004863 28.2390476,67.7400149 28.318014,65.614564 C28.3706582,64.1425332 28.0600573,62.6668316 27.9126535,61.1911299 C27.5652016,57.8249149 28.191214,54.5668993 27.8858775,51.2006844 C27.7454929,49.663801 28.2568069,46.2617813 29.4198196,40.9946251 L32.4066544,38.3027019 Z" id="Fill-1-Copy-3" fill="#722A83" fill-rule="nonzero" transform="translate(70.619771, 58.974128) scale(-1, 1) rotate(-6.000000) translate(-70.619771, -58.974128) "></path>
                <path d="M43.0402472,84 C53.7559458,85.0098691 58.0314978,85.000052 69.0250816,85.000052 C76.3541374,85.000052 83.1255561,85.1522631 89.3393376,85.4566853 L95.0039458,86.539771 L101.297955,91.0887309 L106.333162,94.5546052 C110.049492,96.4287511 111.937694,98.0894825 111.99777,99.5367993 C112.057846,100.984116 110.903944,102.861465 108.536065,105.168845 L105.307675,108.811825 L103.500858,110.584273 L100.983254,113.83353 C98.8678256,115.289775 97.0845231,116.011882 95.6333467,116 C88.0766113,115.939049 91.5745919,115.80206 84.0222809,115.720179 C81.0801094,115.692885 78.1423621,115.501829 75.2001906,115.383556 C74.8064262,115.368393 74.4038133,115.325936 74.0056247,115.347164 C70.6298699,115.535188 67.2943503,115.926758 63.8783604,115.947627 C55.0332477,116.001663 45.0390806,116.001663 41.0414138,115.001611 C37.043747,114.001559 40.1861368,112.181088 39.9826182,109.66703 C39.8321913,107.926294 40.3940797,106.164331 40.4604445,104.408432 C40.5046877,103.192343 40.2436529,101.973222 40.119772,100.754101 C39.827767,97.9731701 39.5180647,95.195272 39.2614543,92.4143412 C39.1434725,91.1446759 40.4030701,88.3398955 43.0402472,84 Z" id="Fill-1-Copy-2" fill="#722A83" fill-rule="nonzero" transform="translate(75.500000, 100.000000) scale(-1, 1) translate(-75.500000, -100.000000) "></path>
                <path d="M113.681556,172.237573 C113.623383,175.116539 114.692311,178.082747 113.2089,181.066404 C110.852895,185.812336 106.948035,186.885406 103.733978,180.795955 C102.206938,177.89954 101.886986,173.773022 101.748826,170.161227 C101.472504,162.789328 101.705196,155.382532 101.690653,147.993184 C101.661566,139.173077 101.697924,130.352971 101.516134,121.541588 C101.225269,107.60041 100.06181,93.7115774 97.5821867,80.1106412 C94.7826126,64.7823251 96.4571631,49.6546642 93.2794647,34.4397618 C92.7704512,31.9882782 92.2614378,29.5106221 92.0287459,27.0155177 C91.7087946,23.6305509 94.1084295,19.9140667 96.7989293,19.2423078 C99.2640088,18.6228938 105.456654,19.0406495 106.02384,22.2773059 C106.87462,27.1802732 105.088577,34.8410723 106.106604,39.6829707 C107.655459,47.0984908 109.659651,54.681259 110.698454,64.6517062 C113.162673,88.303322 111.354637,91.4345765 112.299948,106.58841 C112.874406,115.783655 113.237987,124.996348 113.819716,136.529663 C113.819716,146.893942 113.986964,159.57012 113.681556,172.237573 Z" id="Fill-4-Copy" fill="#A36ECE" fill-rule="nonzero"></path>
                <path d="M102.156541,35 C115.631428,36.3464928 128.344109,37.5150707 141.012283,38.9100858 C149.402097,39.8347045 156.899482,40.2899281 163.504438,40.2757565 L170.627628,41.7198715 L178.542283,47.7851545 L184.874007,52.4063225 C189.547255,54.905185 191.921651,57.1194947 191.997196,59.0492515 C192.072741,60.9790083 190.621721,63.482141 187.644136,66.5586496 L183.584467,71.4159592 L181.312412,73.7792246 L178.14655,78.1115696 C175.486419,80.0532304 173.243933,81.0159737 171.419093,81 C161.916572,80.9189291 166.315249,80.7362775 156.818291,80.6271024 C153.118539,80.5907107 149.424351,80.3359688 145.724599,80.1782715 C145.229444,80.1580539 144.723162,80.1014445 144.222444,80.1297492 C139.977465,80.3804475 128.442043,80.9603374 121.460315,80.5963611 C118.72485,80.4537539 102.33256,81.5564803 101.564792,78.564274 C100.719134,75.2607165 101.694768,75.9083123 101.438845,72.5562325 C101.249685,70.2352509 101.956254,67.8859646 102.039707,65.5447653 C102.095342,63.923313 101.767094,62.2978171 101.611315,60.6723213 C101.244121,56.9644116 100.854674,53.2605454 100.531989,49.5526358 C100.383628,47.8597478 99.8729647,43.9972601 99,37.9651725 L102.156541,35 Z" id="Fill-1-Copy" fill="#A36ECE" fill-rule="nonzero"></path>
            </g>
        </g>
    </g>
</svg>