<?xml version="1.0" encoding="UTF-8"?>
<svg width="131px" height="133px" viewBox="0 0 131 133" version="1.1" xmlns="http://www.w3.org/2000/svg" xmlns:xlink="http://www.w3.org/1999/xlink">
    <!-- Generator: Sketch 60.1 (88133) - https://sketch.com -->
    <title>Group</title>
    <desc>Created with Sketch.</desc>
    <g id="PL" stroke="none" stroke-width="1" fill="none" fill-rule="evenodd">
        <g id="Icons" transform="translate(-457.000000, -6936.000000)">
            <g id="Group" transform="translate(451.000000, 6936.000000)">
                <g id="page-404-copy-2">
                    <g id="Group-7">
                        <g id="Group-3-Copy-2" transform="translate(36.000000, 24.000000) scale(-1, 1) translate(-36.000000, -24.000000) translate(0.000000, 3.600000)"></g>
                        <g id="Group-6" transform="translate(12.800000, 0.400000)">
                            <g id="Group-3" transform="translate(29.600000, 56.400000) scale(-1, 1) translate(-29.600000, -56.400000) translate(0.000000, 43.200000)"></g>
                            <g id="Group-3" transform="translate(88.755800, 21.195447) rotate(-3.000000) translate(-88.755800, -21.195447) translate(51.155800, 1.995447)"></g>
                        </g>
                    </g>
                </g>
                <path d="M68.4740512,2.62579325 C68.9946606,5.56376523 68.30851,9.73768889 68.2779234,13.2783519 L68.2794775,13.2779214 L70.4192654,13.4908915 C79.3452223,14.3765727 87.8998536,15.1956189 96.4291284,16.145069 C103.104894,16.888784 109.070555,17.2549421 114.326112,17.2435432 L119.994026,18.405114 L126.291709,23.2837113 L131.329855,27.0007377 C135.048353,29.0106923 136.937658,30.7917675 136.997769,32.3439632 C137.05788,33.8961589 135.903305,35.9095482 133.534044,38.3841312 L130.30377,42.2910977 L128.495898,44.191985 L125.976825,47.6766973 C123.965994,49.1603794 122.255083,49.9334419 120.84409,49.996023 L120.623795,50 L120.623795,50 C113.062649,49.9347908 116.562671,49.7878754 109.005952,49.7000607 C106.062063,49.6707891 103.122602,49.465888 100.178713,49.3390444 C99.9817158,49.3309135 99.7825053,49.3154646 99.5827415,49.3048943 L99.2828882,49.2942223 L99.2828882,49.2942223 L98.9834499,49.3000157 L98.9834499,49.3000157 C96.4697941,49.4500798 90.7434708,49.746785 85.6886373,49.7681078 L85.2168325,49.7692871 L85.2168325,49.7692871 L84.7496733,49.7687756 C83.3558758,49.7646276 82.0343967,49.73661 80.8716484,49.6753339 C80.7663287,49.6697836 80.6355667,49.6665786 80.4820018,49.6652322 L80.1452503,49.6648733 C78.9875453,49.6706713 76.9857767,49.738008 74.8104856,49.7432622 L74.4656744,49.7435578 C74.0859996,49.7432766 73.7021766,49.7409371 73.3176912,49.7358965 L73.3277332,49.9757068 C73.6263545,57.9235122 73.0694414,61.7055647 73.609048,70.1762562 C74.0790591,77.5435306 74.3765345,84.9247849 74.8524952,94.1653325 C74.8524952,102.469243 74.9893339,112.625458 74.7394545,122.774682 C74.6918584,125.081323 75.5664361,127.457864 74.3527364,129.848384 C73.3889161,131.749616 72.1082845,132.915169 70.7398977,132.995552 L70.602775,132.99996 C69.2745917,133.007355 67.8715407,131.989833 66.6005275,129.631699 C65.3511308,127.311077 65.0893524,124.004891 64.9763118,121.111104 C64.7502305,115.204703 64.9406148,109.270342 64.9287157,103.349961 C64.9049177,96.2832485 64.9346653,89.2165371 64.7859275,82.1568145 C64.7563399,80.7681028 64.7157165,79.3800394 64.66336,77.9929869 L64.66336,77.9929869 L64.6584591,77.8640469 L64.6584591,77.8640469 L64.4218324,77.8727111 L64.4218324,77.8727111 L64.395612,77.8736237 C62.408682,77.942554 60.2170466,77.9675567 57.9916632,77.9717772 L57.5143411,77.972372 L57.5143411,77.972372 L57.0363597,77.9723812 C55.7611958,77.9716698 54.4829868,77.9652522 53.2336315,77.957447 C50.5195573,77.9404911 47.8694184,77.6223402 45.1873119,77.469571 C45.0818556,77.4638216 44.9760086,77.4638216 44.8701617,77.4668332 L44.5530115,77.4821649 L44.5530115,77.4821649 L44.2382047,77.4991393 C41.900589,77.595236 39.5664884,77.7504693 37.2288727,77.7726454 C31.2284064,77.839174 34.0076239,77.9504773 28.0036423,78 C26.8506529,78.0096545 25.4337824,77.4229424 23.7530307,76.2397435 L23.7530307,76.2397435 L21.752743,73.5997221 L20.3171894,72.159608 L17.7521673,69.1996865 C15.8708386,67.3249401 14.9540401,65.7995944 15.0017716,64.6236494 C15.0495031,63.4477045 16.549719,62.0983602 19.5024191,60.5756167 L19.5024191,60.5756167 L23.5029948,57.7595939 L28.5037143,54.063564 L33.0043619,53.1835568 C37.941339,52.9362138 43.3213703,52.8125422 49.1444557,52.8125422 L49.1444557,52.8125422 L50.6760805,52.8124439 C50.9223243,52.8123801 51.1642485,52.8122771 51.4021441,52.8121115 L52.1040357,52.8114041 C56.0858808,52.8059742 58.9487116,52.7748634 62.1994727,52.5974994 C62.0041437,51.3828787 61.7923208,50.17109 61.5672437,48.9621403 C61.4827609,48.5091755 61.4032579,48.0564294 61.3283518,47.6038904 L61.3282843,47.6038917 L60.968018,47.5890135 C59.7517134,47.5398947 58.5598324,47.5037152 57.4521601,47.5026491 C54.2360516,47.4995538 38.5085257,46.952026 35.700728,46.6834309 C28.4921499,46.005328 27.2787691,46.6422079 20.0681017,45.9434076 C18.6833527,45.8095036 17.0560915,44.9369801 15.1863332,43.3256927 L15.1863332,43.3256927 L13.1142302,39.9511943 L11.5706342,38.0669908 L8.86063777,34.2429379 C6.83615593,31.7884949 5.9256387,29.868918 6.12908626,28.4842069 C6.33253382,27.0994959 8.30045554,25.6929024 12.0328516,24.2644266 L12.0328516,24.2644266 L17.1834108,21.4386133 L23.643487,17.6981985 L29.153462,17.225083 L29.153462,17.225083 L29.9944906,17.3120329 C34.7976861,17.7907304 40.2361173,18.0311213 46.3097844,18.0332055 C51.0312328,18.0352147 54.9947811,18.0759103 59.0073455,18.1290808 L58.9992658,18.0439958 L58.9992658,18.0439958 L58.9402769,17.5911988 C58.7086525,15.8519145 58.4182541,14.1118763 58.0468348,12.3704116 C57.6303692,10.4062711 57.2139037,8.42116108 57.0235194,6.42207138 C56.761741,3.71001967 58.7250787,0.732354638 60.9263967,0.194138188 C62.9432799,-0.302139315 68.0099896,0.0325685472 68.4740512,2.62579325 Z" id="Combined-Shape" fill="#3F5385" fill-rule="nonzero"></path>
            </g>
        </g>
    </g>
</svg>