<?xml version="1.0" encoding="UTF-8"?>
<svg width="57px" height="62px" viewBox="0 0 57 62" version="1.1" xmlns="http://www.w3.org/2000/svg" xmlns:xlink="http://www.w3.org/1999/xlink">
    <!-- Generator: Sketch 60.1 (88133) - https://sketch.com -->
    <title>Fill 10</title>
    <desc>Created with Sketch.</desc>
    <g id="Design-ideas" stroke="none" stroke-width="1" fill="none" fill-rule="evenodd">
        <g id="Landing---Desktop" transform="translate(-136.000000, -2470.000000)" fill="#3F5385">
            <path d="M145.833164,2512.28953 C145.226215,2514.51542 144.66687,2516.55481 144.22951,2518.17008 C145.270844,2519.13864 146.071183,2519.77332 146.737636,2520.53433 C147.671861,2521.60516 148.546581,2522.01424 149.498658,2521.47882 C151.283801,2520.47116 153.02134,2519.37927 154.88384,2518.26332 C151.593226,2516.81048 149.567088,2513.52279 145.833164,2512.28953 M136,2530.31619 C136.895547,2527.97901 137.856549,2525.76215 138.600359,2523.47009 C139.650618,2520.22752 140.55509,2516.9308 141.489315,2513.64913 C141.929651,2512.10304 142.218249,2510.50882 142.759742,2509.00184 C142.98586,2508.37318 143.66124,2507.88288 144.190832,2507.40161 C145.131007,2506.55938 146.157465,2505.81943 147.070863,2504.95013 C149.921142,2502.21891 152.003809,2498.81692 154.735078,2495.9744 C157.037913,2493.57406 159.218762,2491.05941 161.462092,2488.60191 C163.529883,2486.3279 165.689907,2484.1321 167.665465,2481.77386 C169.920696,2479.08476 172.015264,2476.25728 174.175287,2473.48395 C174.568019,2472.97861 174.981577,2472.47929 175.314804,2471.92884 C176.26688,2470.37373 177.474827,2469.76311 179.170713,2470.08196 C179.408732,2470.12407 179.622949,2470.32259 179.840142,2470.46397 C182.505955,2472.23565 185.162844,2474.01636 187.837583,2475.77601 C189.125861,2476.62124 190.470669,2477.37624 191.741096,2478.24253 C193.21979,2479.2532 193.383428,2480.08039 192.297466,2481.55128 C189.152639,2485.81354 186.159549,2490.17808 182.461327,2494.03127 C179.492039,2497.11442 177.064244,2500.71493 174.276445,2503.98157 C170.352106,2508.57471 166.942482,2513.62506 162.262432,2517.54442 C161.465068,2518.21219 160.867045,2519.15669 160.274972,2520.04403 C159.715627,2520.88325 159.034298,2521.52394 158.022717,2521.50289 C156.505345,2521.46679 155.347977,2522.26691 154.160857,2523.00686 C151.489092,2524.65823 148.870882,2526.39081 146.181267,2528.0151 C144.235461,2529.1882 142.256927,2530.33123 140.209963,2531.31182 C137.969608,2532.39167 137.93093,2532.30143 136,2530.31619" id="Fill-10"></path>
        </g>
    </g>
</svg>