<?xml version="1.0" encoding="UTF-8"?>
<svg width="192px" height="193px" viewBox="0 0 192 193" version="1.1" xmlns="http://www.w3.org/2000/svg" xmlns:xlink="http://www.w3.org/1999/xlink">
    <!-- Generator: Sketch 60.1 (88133) - https://sketch.com -->
    <title>Group 17</title>
    <desc>Created with Sketch.</desc>
    <g id="PL" stroke="none" stroke-width="1" fill="none" fill-rule="evenodd">
        <g id="Icons" transform="translate(-945.000000, -2840.000000)">
            <g id="Group-17" transform="translate(945.000000, 2840.000000)">
                <path d="M0.0923149535,188.339904 C0.517358843,152.264654 -0.99697181,116.114663 1.36744662,80.1141544 C8.29842867,-25.4166063 187.30236,-29.6998889 191.89243,85.2377333 C193.075157,114.853809 184.479382,129.027813 167.365893,155.689758 C156.040309,173.33444 133.401607,182.070817 114.978293,187.990826 C87.5023576,196.819735 30.4686872,191.41042 9.65016029,190.83413 L0.0923149535,188.339904 Z" id="Mask-Copy-2" fill="#F0E8F7" transform="translate(96.000000, 96.500000) scale(-1, 1) translate(-96.000000, -96.500000) "></path>
                <g id="pencil" transform="translate(50.000000, 22.000000)" fill="#A36ECE" fill-rule="nonzero">
                    <g id="Fill-10-Clipped">
                        <path d="M19.3213042,82.5327969 C18.1287033,86.8768611 17.0296397,90.8569631 16.1702655,94.009345 C18.2163946,95.8996 19.7889909,97.138245 21.0985135,98.623445 C22.9341835,100.713292 24.6529319,101.511661 26.5236785,100.466737 C30.0313283,98.500168 33.4454407,96.369228 37.1050887,94.191326 C30.6393209,91.3559434 26.6581384,84.9396432 19.3213042,82.5327969 M-1.49213975e-13,117.713846 C1.759671,113.152579 3.6479558,108.826126 5.1094765,104.352914 C7.1731438,98.024669 8.950353,91.5907577 10.7860231,85.1861982 C11.6512434,82.1688348 12.2183134,79.0575455 13.2823005,76.1164967 C13.7266028,74.8895921 15.0536637,73.9327239 16.0942664,72.9934668 C17.9416287,71.3497668 19.9585273,69.905659 21.7532748,68.2091258 C27.3538223,62.8788417 31.4460803,56.2394679 36.8127845,50.6919806 C41.3376527,46.0074357 45.6228316,41.0998173 50.0307781,36.3037356 C54.0938058,31.8657457 58.338062,27.5803851 62.219861,22.9780253 C66.651192,17.7299261 70.766834,12.2117906 75.011091,6.7993214 C75.782774,5.8131014 76.595379,4.8386222 77.25014,3.76434685 C79.120887,0.72937229 81.494397,-0.46231018 84.826664,0.15994766 C85.294351,0.24213266 85.715269,0.62957622 86.142033,0.905483 C91.380123,4.3631233 96.600675,7.8383746 101.856304,11.2725334 C104.387658,12.9221037 107.030087,14.3955634 109.526365,16.0862262 C112.431868,18.0586661 112.753402,19.6730143 110.619582,22.5436188 C104.440272,30.8619147 98.559113,39.3798027 91.292432,46.89973 C85.458041,52.9168459 80.687637,59.9436632 75.209858,66.3188709 C67.498874,75.282906 60.799263,85.1392354 51.6033745,92.7883105 C50.0366242,94.09153 48.8615615,95.934822 47.698191,97.666577 C46.5991274,99.304407 45.2603744,100.554793 43.2727062,100.5137 C40.2912039,100.443256 38.0170776,102.004771 35.6844905,103.448879 C30.434708,106.671705 25.290155,110.05303 20.005296,113.223023 C16.1819577,115.512462 12.2943125,117.743198 8.2722074,119.656934 C3.8701069,121.764393 3.7941079,121.588282 -1.49213975e-13,117.713846" id="Fill-10"></path>
                    </g>
                </g>
            </g>
        </g>
    </g>
</svg>