<?xml version="1.0" encoding="UTF-8"?>
<svg width="53px" height="69px" viewBox="0 0 53 69" version="1.1" xmlns="http://www.w3.org/2000/svg" xmlns:xlink="http://www.w3.org/1999/xlink">
    <!-- Generator: Sketch 60.1 (88133) - https://sketch.com -->
    <title>Group 6 Copy 7</title>
    <desc>Created with Sketch.</desc>
    <g id="Design-ideas" stroke="none" stroke-width="1" fill="none" fill-rule="evenodd">
        <g id="Landing---Mobile" transform="translate(-119.000000, -2927.000000)" fill="#3F5385">
            <g id="Group-6-Copy-7" transform="translate(119.000000, 2927.000000)">
                <path d="M32.0378249,1.29727218 C33.5390033,1.80157669 34.3733295,2.96300526 35.0005967,4.26502782 C35.6887637,5.68013684 36.0084873,7.30002406 36.8306336,8.61427218 C37.9116038,10.3441895 37.649735,12.4439301 38.6728504,14.1646782 C38.9408092,14.6200805 38.7337501,15.3627835 38.7398401,15.9710053 C38.75811,18.4222308 38.8159648,20.8704 38.773335,23.3185692 C38.7428851,25.0454301 38.8190098,25.271603 40.4846173,25.4030278 C42.5552081,25.5680729 44.6288439,25.693385 46.7024797,25.7514564 C48.0514087,25.7911895 48.885735,26.5033286 49.4307875,27.6219677 C50.438678,29.688088 50.9136959,31.8917459 50.895426,34.1962647 C50.8649762,38.5180015 50.7431767,42.8427947 50.8375713,47.1614752 C50.895426,49.8602684 51.3004092,52.5498925 51.5013783,55.2456293 C51.6140428,56.7585429 51.5500981,58.283682 51.7114824,59.7874263 C51.8424168,60.9977571 52.0494759,62.2325391 52.466639,63.3664602 C53.371,65.8451932 53.0025566,67.2908662 50.7005469,68.9902195 C49.4886423,68.2719677 48.4746618,67.7034789 47.1105079,68.6784677 C46.4893306,69.1247008 45.3961805,68.977994 44.5131344,68.9718812 C41.01749,68.9474301 37.5218455,68.9168662 34.0292461,68.7976669 C31.6967864,68.7182008 29.3673718,68.5623248 27.0531821,68.2780805 C26.0848764,68.1527684 25.1866054,67.5139827 24.2122098,67.2847534 C23.0216201,67.0066218 21.7884005,66.7773925 20.567361,66.7651669 C16.7245881,66.7284902 12.8879051,66.7773925 9.04817724,66.8446331 C8.07073659,66.8629714 7.09329593,67.0646932 6.11585528,67.1838925 C6.05495556,67.336712 5.98796585,67.492588 5.92706612,67.6454075 C5.08969485,66.8965917 4.17619892,66.2211293 3.45149214,65.374509 C3.09522873,64.9588398 2.83335989,64.1733474 2.96429431,63.6690429 C3.32360271,62.2906105 2.79682005,61.1200128 2.48318645,59.8546669 C1.47225095,55.7774414 0.805398916,51.6543699 0.905883469,47.4212684 C0.933288347,46.269009 0.601384824,45.1075805 0.409550678,43.9553211 C0.0411073171,41.7119301 0.144636856,39.4563135 0.18422168,37.1945842 C0.214671545,35.4127083 -0.0350173442,33.6247195 0.00456747967,31.8428436 C0.0563322493,29.6422421 0.211626558,27.4385842 0.455225474,25.2502083 C0.662284553,23.3705278 1.9777187,23.1963135 3.47585203,23.6364338 C4.10616423,23.8198173 4.74561138,24.0459902 5.39114851,24.0918361 C7.57744878,24.2507684 9.76374905,24.3485729 11.9530943,24.4494338 C12.693026,24.4830541 13.4360027,24.4555466 14.3890835,24.4555466 C14.3129588,23.4591632 14.2916439,22.6553323 14.1850694,21.8606707 C13.6796016,18.1074226 13.9566954,14.4428098 15.2477696,10.8698887 C15.8050022,9.32641128 16.2739301,7.74931353 16.9255572,6.24862556 C18.6063897,2.38229098 21.7944905,0.710445113 25.8016927,0.303945113 C27.966678,0.0869413534 30.009864,0.621809774 32.0378249,1.29727218 Z M26.4482685,34.0000028 L26.0978178,34.0084426 C23.8044078,34.1240246 21.8905409,35.1103246 20.69,37.1933695 C19.6025145,39.0837778 19.92553,40.9099738 20.79498,42.6488412 C21.5675254,44.1899349 23.0170553,44.7567135 23.1947139,46.4262317 C23.259317,47.0529431 23.5688735,47.8157845 23.3104611,48.2806811 C22.4786962,49.7678365 21.9793702,51.9262253 23.0507049,53.1796482 C23.6213657,53.231018 24.2485541,53.4775929 24.6927004,53.3003672 C26.5150462,52.5734846 28.1974186,53.331189 29.8098043,53.8037911 C30.6846379,54.0580716 31.4733341,54.1197153 31.949782,53.6548187 C32.463915,53.1591002 31.8299992,49.2704029 31.8057731,48.5692053 C31.7115602,46.054654 32.4289217,46.5478083 32.2539549,44.4904482 C33.0157331,43.3705868 33.8663406,42.6539782 33.9659371,41.855178 C34.1005269,40.7635699 33.8178883,39.5563799 33.4410369,38.4904567 C32.8865269,36.9390891 31.8824871,35.5238514 30.3024029,34.8509071 C29.0130327,34.3038189 27.4894763,33.9390934 26.0978178,34.0084426 Z M21.7137203,9.78146217 C20.7609036,11.5066494 20.057325,13.4519562 19.5951959,15.3945115 C19.0136402,17.8460934 19.011044,20.3967291 19.2862444,22.9308558 C19.4472108,24.416663 19.6730828,24.7028184 21.1451458,24.7440908 C23.8971505,24.8183812 26.6465591,24.8651566 29.3959676,24.9146835 C30.4785959,24.933944 31.5638204,24.917435 32.8723208,24.917435 C32.9735738,23.8966304 33.1059816,23.1619813 33.1085778,22.4328352 C33.1085778,20.8837436 33.0930004,19.3346521 32.9917474,17.7910635 C32.7658753,14.4232339 31.8130586,11.2507604 30.4474411,8.21861313 C30.2942635,7.87742778 29.8814628,7.6022783 29.5283754,7.43168562 C27.028205,6.21277343 23.1027039,7.26384444 21.7137203,9.78146217 Z" id="Combined-Shape"></path>
            </g>
        </g>
    </g>
</svg>