<?xml version="1.0" encoding="UTF-8"?>
<svg width="192px" height="193px" viewBox="0 0 192 193" version="1.1" xmlns="http://www.w3.org/2000/svg" xmlns:xlink="http://www.w3.org/1999/xlink">
    <!-- Generator: Sketch 60.1 (88133) - https://sketch.com -->
    <title>Group 26 Copy 2</title>
    <desc>Created with Sketch.</desc>
    <g id="PL" stroke="none" stroke-width="1" fill="none" fill-rule="evenodd">
        <g id="Icons" transform="translate(-923.000000, -3114.000000)">
            <g id="Group-26-Copy-2" transform="translate(923.000000, 3114.000000)">
                <g id="Group-21">
                    <path d="M0.0923149719,188.339904 C0.517358861,152.264654 -0.996971792,116.114663 1.36744664,80.1141544 C8.29842869,-25.4166063 187.30236,-29.6998889 191.89243,85.2377333 C193.075157,114.853809 184.479382,129.027813 167.365893,155.689758 C156.040309,173.33444 133.401607,182.070817 114.978293,187.990825 C87.5023576,196.819735 30.4686872,191.41042 9.65016031,190.83413 L0.0923149719,188.339904 Z" id="Mask-Copy" fill="#F0E8F7" transform="translate(96.000000, 96.500000) scale(-1, 1) translate(-96.000000, -96.500000) "></path>
                    <path d="M105.707855,40.9290351 C115.790956,43.0226778 123.795693,48.2409235 130.64272,55.6638384 C137.776418,63.388111 142.500976,72.0746133 144.821909,82.0617118 C147.909135,95.3584576 144.67306,107.555512 138.096166,119.271452 C132.930575,128.476078 125.548796,135.216973 115.383002,138.991874 C108.12802,141.682945 100.55329,142.962393 94.0315244,143 C82.2339099,143.041698 72.4264537,140.847603 64.5154365,133.778915 C56.9351936,127.001012 50.9481798,119.165712 48.7209666,109.178614 C47.5797955,104.066108 45.6392533,99.0963499 46.058234,93.7036339 C46.8355535,83.806414 48.6768634,74.3162913 55.9428709,66.5973057 C57.1060936,65.3601532 58.2582905,64.0225482 59.0080455,62.5421948 C63.6609364,53.3904386 72.3492731,48.4471156 80.9990194,43.8421591 C88.5792624,39.8081961 97.157341,39.157898 105.707855,40.9290351 Z M98.4155028,63.0706305 C96.8447252,63.5160432 95.6191733,63.8029917 94.4410901,64.2184248 C93.8196835,64.4368483 93.185331,64.7709078 92.7149607,65.2206034 C91.6231839,66.2741757 90.6220289,67.4391013 89.582036,68.5526331 C85.8967499,72.4885396 82.2632476,76.4672743 78.5089163,80.3389387 C77.0460217,81.855055 75.3803069,83.1912932 73.7102768,84.488986 C71.6216603,86.1078899 70.3486399,87.4227139 71.9409942,91.0331266 C74.0900252,91.6370034 76.5583902,92.3779304 79.0526471,93.0203525 C80.6493167,93.4315027 82.2718783,93.7312997 83.8944398,94.0096827 C85.0423158,94.2066922 85.6550918,94.8277003 85.6507764,95.9497977 C85.6378305,99.8771386 85.5860466,103.804479 85.538578,107.73182 C85.5342627,107.920264 85.4091183,108.100142 85.3875417,108.292869 C85.0595771,111.175203 84.6539367,114.053255 84.4424859,116.939872 C84.269873,119.184067 85.6550918,120.721597 87.8429607,120.623092 C92.3697349,120.4218 96.6634816,121.732341 101.030589,122.507531 C104.551893,123.128539 106.377274,121.980744 106.411797,118.464554 C106.437689,116.365975 105.712715,114.181739 106.096778,112.181665 C106.968474,107.620467 106.968474,103.007876 107.352538,98.4209817 C107.559673,95.9497977 107.818592,95.5771928 110.437994,95.1360629 C112.319475,94.8148518 114.213902,94.5236204 116.082437,94.1039046 C119.107478,93.4315027 119.625317,91.3629033 117.644584,88.9859412 C114.3261,85.0029237 111.150022,80.908553 107.948052,76.8355964 C106.955528,75.5764489 105.988895,74.2873217 105.151723,72.9296695 C103.701774,70.5655559 102.45033,68.0858063 100.952913,65.760238 C100.253831,64.6809687 99.1620538,63.8501027 98.4155028,63.0706305 Z" id="Combined-Shape" fill="#A36ECE" fill-rule="nonzero"></path>
                </g>
                <g id="resubmitted" transform="translate(46.000000, 40.000000)"></g>
            </g>
        </g>
    </g>
</svg>