<?xml version="1.0" encoding="UTF-8"?>
<svg width="158px" height="159px" viewBox="0 0 158 159" version="1.1" xmlns="http://www.w3.org/2000/svg" xmlns:xlink="http://www.w3.org/1999/xlink">
    <!-- Generator: Sketch 60.1 (88133) - https://sketch.com -->
    <title>Group 19</title>
    <desc>Created with Sketch.</desc>
    <g id="PL" stroke="none" stroke-width="1" fill="none" fill-rule="evenodd">
        <g id="Icons" transform="translate(-1186.000000, -3131.000000)">
            <g id="Group-19" transform="translate(1186.000000, 3131.000000)">
                <path d="M0.0759675138,155.160854 C0.425743215,125.440829 -0.820424719,95.6592298 1.12529462,66.0007801 C6.82891526,-20.9390694 154.134234,-24.4677841 157.911479,70.2217595 C158.884765,94.6204953 151.811158,106.297524 137.728183,128.262546 C128.408171,142.798839 109.778406,149.996165 94.6175536,154.873271 C72.0071484,162.146829 25.0731905,157.690449 7.94127774,157.215682 L0.0759675138,155.160854 Z" id="Mask" fill="#F0E8F7" transform="translate(79.000000, 79.500000) scale(-1, 1) translate(-79.000000, -79.500000) "></path>
                <path d="M61.2362835,67.1905727 C59.664324,62.6515706 58.4911507,57.9666047 57.2484216,53.3145983 C56.8774577,51.9255884 56.8589095,50.4471167 56.6409682,49.0110216 C56.0752482,45.3336765 56.7383462,41.7881697 58.3844985,38.5769669 C60.4572593,34.5182327 63.5223486,31.4059086 68.0944786,30.1769879 C68.7807619,29.9933561 69.3557559,29.3859585 70.0466762,29.1740756 C71.6139987,28.6938077 73.2184175,28.0157825 74.8135623,28.001657 C77.0949903,27.9875315 79.5016186,28.1382037 81.6532092,28.853897 C86.8235186,30.5772111 91.2889966,33.3976077 93.0325269,39.0901944 C94.0202183,42.3202311 95.1794805,45.597353 95.4530664,48.92156 C95.9028601,54.3551787 94.3448117,59.4074083 90.7835583,63.6403573 C89.5037328,65.1612056 88.0384254,66.5219645 86.6426737,67.943934 C84.4725349,70.1616415 84.1572156,71.4564813 85.056803,75.0208222 C89.5176439,76.5369619 94.1083222,77.9965996 98.6294448,79.66812 C101.434859,80.7134089 104.077977,82.0930019 106.285212,84.3060009 C110.375089,88.4071117 113.324252,93.1344542 115.281087,98.6292835 C116.09257,100.922327 117.701626,102.923443 119,105.141151 C118.823792,107.490696 117.367759,109.209302 115.373828,110.518267 C111.024276,113.385749 106.632991,116.116684 101.713082,118.014213 C98.3326737,119.31847 95.035732,120.726314 91.4883897,121.451424 C91.0849664,121.536177 90.7047284,121.781019 90.2966681,121.828105 C86.8096075,122.228328 83.3179097,122.798057 79.8169379,122.929896 C76.4226182,123.052317 72.9494687,123.071151 69.6107936,122.50613 C63.3554148,121.451424 57.0814878,120.457929 51.1553395,117.811747 C47.0051809,115.956595 43.787069,112.759517 39.8177553,110.66894 C38.4451888,109.943829 37.2441932,108.286434 37.8980171,106.129937 C38.1113213,105.418953 37.7449945,104.519628 37.6244312,103.709764 C37.415764,102.372548 36.8871405,101.011789 37.0216149,99.7122405 C37.6615276,93.4593413 40.1145264,87.9974715 44.5104486,83.5149714 C45.0808056,82.9311164 45.8505557,82.5167677 46.5832094,82.1353785 C50.63599,80.0118412 54.7026818,77.9212634 58.7740106,75.8306857 C59.9703692,75.2185796 61.1945501,74.6488501 62.4790126,74.0226184 C62.4836496,71.6024451 62.0153077,69.4365312 61.2362835,67.1905727 Z" id="Fill-1-Copy" fill="#A36ECE"></path>
            </g>
        </g>
    </g>
</svg>