<?xml version="1.0" encoding="UTF-8"?>
<svg width="192px" height="193px" viewBox="0 0 192 193" version="1.1" xmlns="http://www.w3.org/2000/svg" xmlns:xlink="http://www.w3.org/1999/xlink">
    <!-- Generator: Sketch 60.1 (88133) - https://sketch.com -->
    <title>Group 16</title>
    <desc>Created with Sketch.</desc>
    <g id="PL" stroke="none" stroke-width="1" fill="none" fill-rule="evenodd">
        <g id="Icons" transform="translate(-685.000000, -2848.000000)">
            <g id="Group-16" transform="translate(685.000000, 2848.000000)">
                <path d="M0.0923149535,188.339904 C0.517358843,152.264654 -0.99697181,116.114663 1.36744662,80.1141544 C8.29842867,-25.4166063 187.30236,-29.6998889 191.89243,85.2377333 C193.075157,114.853809 184.479382,129.027813 167.365893,155.689758 C156.040309,173.33444 133.401607,182.070817 114.978293,187.990826 C87.5023576,196.819735 30.4686872,191.41042 9.65016029,190.83413 L0.0923149535,188.339904 Z" id="Mask-Copy-5" fill="#F0E8F7" transform="translate(96.000000, 96.500000) scale(-1, 1) translate(-96.000000, -96.500000) "></path>
                <g id="writing-guidance" transform="translate(23.000000, 26.000000)" fill-rule="nonzero">
                    <path d="M19.9899183,22.4579991 C19.7328738,24.3924292 19.3794376,25.8140406 19.3922899,27.2291606 C19.4436988,33.3894767 19.630056,39.5368099 19.7264477,45.6906346 C19.8806744,55.3627852 19.7714305,64.9894961 18.1970331,74.596733 C17.1624291,80.9323162 16.982498,87.417201 16.5712268,93.850155 C16.3784434,96.920576 18.248442,98.368153 20.9281306,97.355498 C32.565819,92.954345 44.1135418,93.616465 55.6419864,97.777437 C59.0992345,99.01729 62.5950393,100.172755 66.0587135,101.360677 C66.4378541,100.218195 66.7912903,99.672919 66.7784381,99.127644 C66.4764108,86.5149 66.6370636,73.9475953 68.3399832,61.4062565 C69.3231783,54.1553892 69.5866489,46.8071513 70.396339,39.5303186 C71.1096374,33.0778906 69.5866489,27.995143 63.1990938,25.2363081 C61.6182703,24.5547136 60.2109518,23.4511797 58.6558328,22.69818 C46.0927843,16.641726 33.4654746,17.2713895 19.9899183,22.4579991 M76.2545127,102.893706 C81.6098313,102.880757 85.6295004,100.329796 89.7318526,98.639945 C97.453179,95.454481 105.30171,94.72286 113.360129,95.94007 C119.58044,96.88535 125.807111,97.97307 131.486801,101.041993 C132.669805,101.689445 134.100858,101.864257 136.117053,102.466388 C136.117053,99.578751 136.365102,97.260872 136.072532,95.027162 C134.39979,81.961578 133.821008,68.8441969 134.317106,55.6944435 C134.616038,47.8149507 133.32491,41.0749736 125.23469,37.7341205 C113.805346,27.6014941 91.118384,27.9899654 78.6523216,34.9047545 C77.8572921,57.3454465 73.1697982,79.792613 76.2545127,102.893706 M9.21884519,17.7182372 C21.2162491,12.8583301 32.9119527,11.4513451 44.8900992,12.1806538 C53.2414221,12.6905246 60.3923627,16.6404092 67.3892436,20.82264 C70.1238043,22.4490631 72.7235628,24.2949242 75.599345,26.1859637 C80.1120122,25.140406 84.5540687,23.6946966 89.0988316,23.1396475 C104.209527,21.2808782 118.549923,23.1009231 131.009506,32.9949969 C134.40524,35.699248 138.05774,38.0614339 141.556181,40.6430578 C143.546119,42.1145834 144.425544,43.9475364 144.130262,46.6582416 C143.648826,50.9630995 143.481928,55.3389521 143.578215,59.6696262 C143.899173,74.5333261 145.048202,89.345393 147.327002,104.041288 C147.859792,107.481302 148.951049,110.830959 149.785539,114.21934 C150.76767,118.220857 148.296295,121.77059 144.014718,121.996482 C142.801497,122.061023 141.094001,121.228449 140.355798,120.240978 C132.973768,110.463077 122.446351,106.84235 111.052348,105.073937 C107.066051,104.454348 103.015563,104.544704 99.00359,105.867787 C92.128674,108.139616 85.221661,110.121012 79.0528514,114.264519 C73.2691911,118.156317 68.6153025,117.878792 63.9935096,113.554572 C54.3583554,104.570521 42.7204242,103.557233 30.6780862,105.215927 C25.3437669,105.951689 19.8040347,107.074696 15.1758227,110.508256 C13.5967101,111.682895 13.429812,111.450548 8.21745669,110.99231 C6.34948209,104.925494 5.77817719,98.587607 6.07345839,92.204542 C6.35590129,86.086093 6.69611659,79.9224661 7.72318169,73.9137363 C9.44351569,63.7615002 9.39858159,53.5963559 9.19958769,43.3860332 C9.07762379,37.2675845 8.92998309,31.1426817 8.88504909,25.0113248 C8.86579159,22.7007714 9.09046209,20.3837639 9.21884519,17.7182372" id="Fill-14" fill="#A36ECE" transform="translate(78.000000, 67.000000) rotate(-6.000000) translate(-78.000000, -67.000000) "></path>
                    <path d="M115.28453,60.9303748 C118.35733,62.3312807 119.446218,63.6985982 119.446218,66.0879397 C119.446218,67.8065969 118.70638,68.6659255 117.226705,69.0955898 C116.240255,69.3820326 114.760581,69.525254 112.787681,69.525254 C110.568169,68.6659255 109.982445,68.2211764 109.379935,66.4365441 C108.436003,63.653005 109.841859,61.5029189 112.774073,60.8329205 C113.507127,60.6623754 114.712146,60.6684663 115.28453,60.9303748 Z M104.215529,4.03758977 C110.34596,4.32456457 113.71607,4.87616837 118.35762,8.03381277 C122.333715,10.7387485 121.79852,17.6025833 121.862722,19.1615576 C122.252342,28.2810443 106.678487,32.2637517 109.962431,41.0556954 C111.256527,44.4977701 111.604403,48.1869386 112.279281,51.7784189 C112.578454,53.3414311 112.028811,53.8815898 108.327416,56.0479707 C104.723427,52.6863451 102.73358,49.3706905 101.961296,45.353979 C99.936661,34.826632 96.693646,36.1130429 101.83357,29.4650249 C105.338672,24.9314993 110.34596,26.5800541 111.347417,17.5130028 C112.348875,8.44595147 93.660197,12.9794772 92.820452,12.9794772 C88.3138927,12.9794772 90.1684883,7.70305977 91.818994,6.79739667 C94.823367,5.14884197 98.085098,3.75061507 104.215529,4.03758977 Z" id="Combined-Shape-Copy" fill="#722A83" transform="translate(105.934959, 36.762627) rotate(29.000000) translate(-105.934959, -36.762627) "></path>
                </g>
            </g>
        </g>
    </g>
</svg>