<?xml version="1.0" encoding="UTF-8"?>
<svg width="133px" height="45px" viewBox="0 0 133 45" version="1.1" xmlns="http://www.w3.org/2000/svg" xmlns:xlink="http://www.w3.org/1999/xlink">
    <!-- Generator: Sketch 60.1 (88133) - https://sketch.com -->
    <title>Ayup-dark-grey Copy</title>
    <desc>Created with Sketch.</desc>
    <g id="Design-ideas" stroke="none" stroke-width="1" fill="none" fill-rule="evenodd">
        <g id="Landing---Desktop" transform="translate(-409.000000, -507.000000)">
            <rect id="Rectangle-Copy" fill="#722A83" transform="translate(720.000000, 578.500000) scale(1, -1) translate(-720.000000, -578.500000) " x="-44" y="231" width="1528" height="695"></rect>
            <g id="Ayup-dark-grey-Copy" transform="translate(409.000000, 506.000000)" fill="#FFFFFF" fill-rule="nonzero">
                <path d="M18.4992559,10.7923836 L14.0880093,22.0256266 L22.9112465,22.0256266 L18.4992559,10.7923836 Z M11.2803789,29.1834436 L9.02489844,35 L0,35 L14.4898435,1 L22.5607578,1 L37,35 L28.0257029,35 L25.7196211,29.1834436 L11.2803789,29.1834436 Z" id="Shape"></path>
                <polygon id="Path" points="47.7292955 46 39.0486588 46 43.745238 34.9310193 32 10 40.783725 10 47.8831699 25.1824481 54.3186053 10 63 10"></polygon>
                <path d="M90,34.2497106 L81.9320265,34.2497106 L81.9320265,32.6496868 C79.9909822,34.1495236 77.8991485,35 75.3091183,35 C69.1844066,35 65,30.749102 65,23.8502983 L65,10 L73.0672343,10 L73.0672343,22.599816 C73.0672343,26.0499599 74.8604459,27.698964 77.4992608,27.698964 C78.993111,27.698964 80.5372243,26.8499718 81.9312873,25.2996705 L81.9312873,10 L89.9992608,10 L89.9992608,34.2497106 L90,34.2497106 Z" id="Path"></path>
                <path d="M113.990169,22.6329051 C113.990169,19.2875494 111.573687,16.5914032 108.248034,16.5914032 C106.434177,16.5914032 104.671162,17.1413043 103.159365,18.8880929 L103.159365,26.3784585 C104.670414,28.125247 106.434177,28.6254941 108.248034,28.6254941 C111.57294,28.6254941 113.990169,25.979002 113.990169,22.6329051 M122,22.6329051 C122,29.8238636 116.459736,35.2658103 109.860767,35.2658103 C107.190075,35.2658103 104.97397,34.5669466 103.160113,33.4174901 L103.160113,46 L95,46 L95,10.5499012 L103.160113,10.5499012 L103.160113,11.8483202 C104.97397,10.6996047 107.190075,10 109.860767,10 C116.459736,10 122,15.3937747 122,22.6329051" id="Shape"></path>
                <path d="M124,31.4744296 C124,28.9540327 126.027973,27 128.500734,27 C130.972027,27 133,28.9540327 133,31.4744296 C133,34.0459673 130.972027,36 128.500734,36 C126.027973,36 124,34.045204 124,31.4744296" id="Path"></path>
            </g>
        </g>
    </g>
</svg>