<?xml version="1.0" encoding="utf-8"?>
<!-- Generator: Adobe Illustrator 24.0.3, SVG Export Plug-In . SVG Version: 6.00 Build 0)  -->
<svg version="1.1" id="Layer_1" xmlns="http://www.w3.org/2000/svg" xmlns:xlink="http://www.w3.org/1999/xlink" x="0px" y="0px"
	 viewBox="0 0 1798.92 612.43" style="enable-background:new 0 0 1798.92 612.43;" xml:space="preserve">
<style type="text/css">
	.st0{fill:#3B3B3B;}
	.st1{fill:#55B5B1;}
</style>
<g>
	<g>
		<path class="st0" d="M248.6,132.73l-59.28,152.26h118.57L248.6,132.73z M151.59,382.01l-30.31,78.84H0L194.72,0h108.46
			l194.04,460.85H376.62l-30.99-78.84H151.59z"/>
	</g>
	<g>
		<polygon class="st0" points="645.44,611.75 530.92,611.75 592.88,464.88 437.93,134.08 553.81,134.08 647.47,335.53 
			732.37,134.08 846.9,134.08 		"/>
	</g>
	<g>
		<path class="st0" d="M1222.85,460.84h-109.15v-21.56c-26.26,20.21-54.56,31.67-89.6,31.67c-82.86,0-139.47-57.28-139.47-150.24
			V134.08h109.14v169.78c0,46.49,24.26,68.71,59.96,68.71c20.21,0,41.1-11.44,59.96-32.33V134.08h109.15V460.84z"/>
	</g>
	<g>
		<path class="st0" d="M1544.22,297.12c0-45.14-32.32-81.52-76.8-81.52c-24.26,0-47.84,7.42-68.06,30.99v101.07
			c20.21,23.57,43.8,30.32,68.06,30.32C1511.89,377.98,1544.22,342.27,1544.22,297.12 M1651.35,297.12
			c0,97.03-74.1,170.46-162.36,170.46c-35.72,0-65.36-9.43-89.62-24.94v169.78h-109.14V134.08h109.14v17.52
			c24.26-15.5,53.9-24.94,89.62-24.94C1577.25,126.66,1651.35,199.44,1651.35,297.12"/>
	</g>
	<g>
		<path class="st1" d="M1676.3,413.68c0-33.02,27.63-58.62,61.32-58.62c33.67,0,61.3,25.6,61.3,58.62
			c0,33.69-27.63,59.29-61.3,59.29C1703.93,472.97,1676.3,447.36,1676.3,413.68"/>
	</g>
</g>
</svg>
