<?xml version="1.0" encoding="utf-8"?>
<!-- Generator: Adobe Illustrator 22.1.0, SVG Export Plug-In . SVG Version: 6.00 Build 0)  -->
<svg width="90px" version="1.1" id="Layer_1" xmlns="http://www.w3.org/2000/svg" xmlns:xlink="http://www.w3.org/1999/xlink" x="0px" y="0px"
	 viewBox="0 0 475 170" style="enable-background:new 0 0 475 170;" xml:space="preserve">
<style type="text/css">
	.st1{fill:#FFFFFF;}
</style>
<title>Ayup-logo</title>
<g>
	<path class="st1" d="M68.7,36.8L52.3,79.1H85C85,79.1,68.7,36.8,68.7,36.8z M41.9,106l-8.4,21.9H0L53.8,0h30l53.6,127.9H104
		L95.5,106C95.5,106,41.9,106,41.9,106z M170.8,169.8h-31.6l17.1-40.8l-42.8-91.8h32l25.9,55.9l23.4-55.9h31.6L170.8,169.8
		L170.8,169.8z M326.6,127.9h-30.1v-6c-7.3,5.6-15.1,8.8-24.7,8.8c-22.9,0-38.5-15.9-38.5-41.7V37.2h30.1v47.1
		c0,12.9,6.7,19.1,16.6,19.1c5.6,0,11.4-3.2,16.6-9V37.2h30.1L326.6,127.9L326.6,127.9z M438.8,82.5c0,26.9-20.5,47.3-44.8,47.3
		c-9.9,0-18-2.6-24.7-6.9V170h-30.1V37.2h30.1v4.9c6.7-4.3,14.9-6.9,24.7-6.9C418.3,35.2,438.8,55.4,438.8,82.5z M409.2,82.5
		c0-12.5-8.9-22.6-21.2-22.6c-6.7,0-13.2,2.1-18.8,8.6v28.1c5.6,6.5,12.1,8.4,18.8,8.4C400.3,104.9,409.2,95,409.2,82.5z"/>
	<path class="st1" d="M441.1,114.8c0-9.2,7.6-16.3,16.9-16.3c9.3,0,16.9,7.1,16.9,16.3c0,9.4-7.6,16.5-16.9,16.5
		C448.8,131.3,441.1,124.2,441.1,114.8"/>
</g>
</svg>
