<?xml version="1.0" encoding="UTF-8"?>
<svg width="315px" height="94px" viewBox="0 0 315 94" version="1.1" xmlns="http://www.w3.org/2000/svg" xmlns:xlink="http://www.w3.org/1999/xlink">
    <!-- Generator: Sketch 60.1 (88133) - https://sketch.com -->
    <title>Group 7</title>
    <desc>Created with Sketch.</desc>
    <g id="PL" stroke="none" stroke-width="1" fill="none" fill-rule="evenodd">
        <g id="Icons" transform="translate(-899.000000, -376.000000)" fill="#FFFFFF">
            <g id="Group-7" transform="translate(899.000000, 376.000000)">
                <path d="M122.675249,54.119452 C131.196955,54.119452 137.959594,47.648476 137.959594,38.8636358 C137.959594,30.7847203 131.392407,24 122.79252,24 C114.661718,24 107.859989,30.470976 107.859989,39.3734703 C107.859989,47.2170776 114.661718,54.119452 122.675249,54.119452 Z M122.909791,50.2368664 C116.303514,50.2368664 112.081752,44.7855593 112.081752,38.9420719 C112.081752,34.6280879 115.287164,27.8825856 123.105243,27.8825856 C129.203345,27.8825856 133.737831,33.1378025 133.737831,39.1381621 C133.737831,44.432597 129.750611,50.2368664 122.909791,50.2368664 Z M151.054877,54.119452 C153.908476,54.119452 156.371171,53.0605651 157.426612,51.2173173 L157.504792,51.2173173 L157.504792,53.5703995 L161.21838,53.5703995 L161.21838,31.8436073 L157.152979,31.8436073 L157.152979,43.5698002 C157.152979,47.7661301 155.237549,50.3937386 151.484871,50.3937386 C147.771284,50.3937386 146.090397,48.1975285 146.090397,43.6482363 L146.090397,31.8436073 L142.024995,31.8436073 L142.024995,43.9619806 C142.024995,51.6094977 146.40312,54.119452 151.054877,54.119452 Z M170.521894,53.5703995 L170.521894,41.3735902 C170.521894,37.7263128 172.320053,35.5693208 175.838188,35.4516667 L175.838188,31.2553368 C172.984589,31.4122089 171.303702,32.3534418 170.326442,33.8045091 L170.248262,33.8045091 L170.248262,31.8436073 L166.456493,31.8436073 L166.456493,53.5703995 L170.521894,53.5703995 Z M203.983274,54.119452 C209.768653,54.119452 214.42041,51.4526256 217.352189,46.3934988 L212.153167,46.3934988 C209.807743,49.0603253 207.110506,50.2368664 204.100545,50.2368664 C198.158805,50.2368664 193.585228,44.8639954 193.585228,38.7851998 C193.585228,33.0201484 198.276076,27.8825856 204.335087,27.8825856 C207.735952,27.8825856 210.276828,29.412089 212.46589,31.9612614 L217.547641,31.9612614 C214.615862,26.5099543 209.49502,24 204.022364,24 C196.243375,24 189.363466,30.431758 189.363466,39.1773801 C189.363466,46.9033333 195.969743,54.119452 203.983274,54.119452 Z M234.747416,54.119452 C243.269122,54.119452 250.031761,47.648476 250.031761,38.8636358 C250.031761,30.7847203 243.464574,24 234.864687,24 C226.733885,24 219.932156,30.470976 219.932156,39.3734703 C219.932156,47.2170776 226.733885,54.119452 234.747416,54.119452 Z M234.981958,50.2368664 C228.375681,50.2368664 224.153918,44.7855593 224.153918,38.9420719 C224.153918,34.6280879 227.359331,27.8825856 235.17741,27.8825856 C241.275512,27.8825856 245.809998,33.1378025 245.809998,39.1381621 C245.809998,44.432597 241.822778,50.2368664 234.981958,50.2368664 Z M266.176095,53.5703995 L277.785942,24.5490525 L273.329637,24.5490525 L264.925202,46.3150628 L256.520767,24.5490525 L251.986281,24.5490525 L263.635219,53.5703995 L266.176095,53.5703995 Z M285.40857,53.5703995 L285.40857,24.5490525 L281.186807,24.5490525 L281.186807,53.5703995 L285.40857,53.5703995 Z M300.262921,53.5703995 C309.410073,53.5703995 315,47.9230023 315,39.059726 C315,31.490645 309.644616,24.5490525 300.888367,24.5490525 L290.842135,24.5490525 L290.842135,53.5703995 L300.262921,53.5703995 Z M300.106559,49.6878139 L295.063898,49.6878139 L295.063898,28.4316381 L300.302011,28.4316381 C306.204661,28.4316381 310.778237,32.627968 310.778237,39.1381621 C310.778237,45.7660103 306.791017,49.6878139 300.106559,49.6878139 Z M124.277955,92.2548573 L133.972374,63.2335103 L126.349746,63.2335103 L120.486187,83.5876712 L120.408006,83.5876712 L114.583537,63.2335103 L107,63.2335103 L116.655328,92.2548573 L124.277955,92.2548573 Z M147.614922,92.9215639 C154.143018,92.9215639 159.302951,88.0977454 159.302951,81.2738071 C159.302951,74.685177 154.143018,69.7829224 147.614922,69.7829224 C141.125916,69.7829224 135.926893,74.6067409 135.926893,81.3522432 C135.926893,88.0193094 141.008645,92.9215639 147.614922,92.9215639 Z M147.614922,86.8427683 C144.683142,86.8427683 142.415899,84.3328139 142.415899,81.3522432 C142.415899,78.3716724 144.722233,75.861718 147.575832,75.861718 C150.624883,75.861718 152.813945,78.4501085 152.813945,81.3522432 C152.813945,84.2543779 150.663973,86.8427683 147.614922,86.8427683 Z M169.466454,68.1749829 L169.466454,63.2335103 L162.977448,63.2335103 L162.977448,68.1749829 L169.466454,68.1749829 Z M169.466454,92.2548573 L169.466454,70.488847 L162.977448,70.488847 L162.977448,92.2548573 L169.466454,92.2548573 Z M184.594437,92.960782 C190.145273,92.960782 194.797031,89.4311587 196.087014,83.9798516 L189.480737,83.9798516 C188.503477,85.8623174 186.978951,86.8819863 184.789889,86.8819863 C181.779929,86.8819863 179.629957,84.5289041 179.629957,81.3522432 C179.629957,78.2932363 181.662657,75.8225 184.633528,75.8225 C186.86168,75.8225 188.542567,76.842169 189.480737,78.8815069 L196.047923,78.8815069 C194.836121,73.3517637 190.184364,69.7437044 184.477166,69.7437044 C178.222702,69.7437044 173.101861,74.8028311 173.101861,81.3130251 C173.101861,87.7447831 178.183612,92.960782 184.594437,92.960782 Z M209.964104,92.960782 C214.537681,92.960782 218.485811,90.1763014 220.557602,85.430919 L213.912235,85.430919 C212.856794,86.8035502 211.723172,87.4702569 209.964104,87.4702569 C207.305958,87.4702569 205.234167,85.8230993 204.882353,83.352363 L221.143958,83.352363 C221.261229,82.7640925 221.300319,82.254258 221.300319,81.6267694 C221.300319,74.8812671 216.335839,69.7437044 209.846833,69.7437044 C203.475099,69.7437044 198.471528,75.1557934 198.471528,81.4306792 C198.471528,87.9016553 203.709641,92.960782 209.964104,92.960782 Z M214.811314,78.9599429 L204.960534,78.9599429 C205.468709,76.6460788 207.50141,75.2342295 209.846833,75.2342295 C212.348619,75.2342295 214.303139,76.7245148 214.811314,78.9599429 Z M232.323811,93 C237.249201,93 241.158241,90.1370833 241.158241,85.5877911 C241.158241,82.4111301 239.477354,80.3325742 234.317422,78.9599429 C231.307461,78.1755822 230.25202,77.5873117 230.25202,76.4107706 C230.25202,75.5871918 231.033828,74.9597032 232.128359,74.9597032 C233.1838,74.9597032 234.082879,75.3518836 234.12197,76.6068607 L240.493704,76.6068607 C240.180981,72.3320948 236.858297,69.7437044 232.16745,69.7437044 C227.789325,69.7437044 223.763014,72.5281849 223.763014,76.842169 C223.763014,79.3913413 225.209359,81.5483333 230.682015,83.2347089 C233.926518,84.2543779 234.669235,84.8818664 234.669235,86.0976256 C234.669235,87.1172945 233.535614,87.7840011 232.401992,87.7840011 C231.112009,87.7840011 230.134749,87.1565126 229.939297,85.7838813 L223.489382,85.7838813 C223.958466,90.2155194 227.437512,93 232.323811,93 Z" id="OurCOVIDVoices" fill-rule="nonzero"></path>
                <path d="M77.4571225,33.7168215 C83.9052022,38.2669394 87.8110799,43.8953095 90.7034881,51.2783036 C91.3882642,53.0262236 91.7578961,54.9240383 91.8126474,56.801101 C92.1383157,67.9661383 91.9418825,79.1397293 91.9353044,90.3102099 L91.9397386,93.6612491 L88.6079281,94 C66.4121436,93.4118484 63.971945,95.3473114 46.8007112,90.137661 C41.6998957,88.5901039 36.9959744,83.8353835 33.8099721,80.2255789 C30.3393662,76.2933128 28.1223376,71.8231074 27.0001515,67.1835685 C32.0199659,66.8695107 36.8005045,65.9845483 44.6938603,63.5897511 C49.7946757,62.0421939 54.4985971,57.2874735 57.6845994,53.677669 C64.2702254,46.2160224 66.3421314,36.8174332 64.9848606,28.0003749 C69.6775112,29.0134996 72.97204,30.5519019 77.4571225,33.7168215 Z" id="Combined-Shape-Copy"></path>
                <path d="M65.9612923,27.3129857 L66.0009503,27.5681337 C64.7688573,27.3044184 63.4411086,27.0763373 61.9715824,26.8644405 C38.5542149,23.4877966 22.8325502,46.690504 27.7204895,66.7318224 C21.7787488,67.1011128 15.5048608,66.6823743 3.41856888,67 L0.0607321656,66.6614183 C0.10342681,54.3808375 -0.172217379,42.0950843 0.188816098,29.8196759 C0.24399504,27.9435506 0.616514301,26.0466835 1.3066395,24.2996364 C4.22164162,16.9203288 8.15802989,11.2947693 14.6564784,6.74692344 C20.3540565,2.75955526 24.145255,1.35517824 31.2564471,0.329787023 C49.7112712,-2.33128785 63.3864908,11.5153937 65.9612923,27.3129857 Z" id="Combined-Shape"></path>
            </g>
        </g>
    </g>
</svg>