<?xml version="1.0" encoding="utf-8"?>
<!-- Generator: Adobe Illustrator 24.1.2, SVG Export Plug-In . SVG Version: 6.00 Build 0)  -->
<svg version="1.1" id="Layer_1" xmlns="http://www.w3.org/2000/svg" xmlns:xlink="http://www.w3.org/1999/xlink" x="0px" y="0px"
	 viewBox="0 0 1125 543.7" style="enable-background:new 0 0 1125 543.7;" xml:space="preserve">
<style type="text/css">
	.st0{fill:#739438;}
	.st1{fill:#FFFFFF;}
	.st2{fill:none;stroke:#000000;stroke-width:22;stroke-linecap:round;stroke-linejoin:round;stroke-miterlimit:10;}
</style>
<g>
	<g>
		<path d="M862,191c-4.1,0-8-2.3-9.9-6.2c-20.8-42.7,9.5-75.9,11.9-78.4l66-71c4.1-4.4,11.1-4.7,15.5-0.6c4.4,4.1,4.7,11.1,0.6,15.5
			l-66,71c0,0.1-0.1,0.1-0.1,0.2c-0.9,0.9-22.3,24.2-8,53.5c2.7,5.5,0.4,12-5.1,14.7C865.3,190.6,863.6,191,862,191z"/>
	</g>
	<g>
		<path d="M987.2,293.5c-9.7,0-20.3-2.2-31.6-8c-5.4-2.8-7.5-9.4-4.7-14.8c2.8-5.4,9.4-7.5,14.8-4.7c29,15,52.8-5.8,53.8-6.7
			c0.1,0,0.1-0.1,0.1-0.1l72.6-64.2c4.6-4,11.5-3.6,15.5,1c4,4.6,3.6,11.5-1,15.5l-72.6,64.2C1032.3,277.3,1013.6,293.5,987.2,293.5
			z"/>
	</g>
	<g>
		<path d="M933.2,241.8c-10.6,0-20.3-3.7-27.2-10.7c-8.4-8.4-12.1-20.8-10.2-34.1c1.8-12.3,8.1-24.4,17.9-34.1
			c9.7-9.7,21.8-16.1,34.1-17.9c13.3-1.9,25.7,1.8,34.1,10.2c8.4,8.4,12.1,20.8,10.2,34.1c-1.8,12.3-8.1,24.4-17.9,34.1
			s-21.8,16.1-34.1,17.9C937.7,241.6,935.4,241.8,933.2,241.8z M954.7,166.5c-8.1,0-17.8,4.2-25.5,12c-12.1,12.1-15.7,29.1-7.7,37.1
			c8,8,24.9,4.4,37.1-7.7c12.1-12.1,15.7-29.1,7.7-37.1C963.4,167.9,959.3,166.5,954.7,166.5z"/>
	</g>
	<g>
		<path d="M842.1,378.4c-21.3,0-41.7-7.6-57.1-22.9c-33.1-33.1-30-90.1,7-127.1c37-37,94-40.1,127.1-7c33.1,33.1,30,90.1-7,127.1
			C892.2,368.3,866.6,378.4,842.1,378.4z M861.9,220.5c-18.9,0-38.8,8-54.4,23.5c-28.4,28.4-31.5,71.4-7,95.9
			c11.1,11.1,26,16.5,41.6,16.5c18.9,0,38.8-8,54.4-23.5c28.4-28.4,31.5-71.4,7-95.9C892.4,225.9,877.5,220.5,861.9,220.5z"/>
	</g>
	<g>
		<path d="M819,200c-2.2,0-4.4-0.7-6.3-2c-30.6-21.5-31.6-64.1-31.7-67.8l-3-100.9c-0.2-6.1,4.6-11.1,10.7-11.3
			c6-0.2,11.1,4.6,11.3,10.7l3,101c0,0.1,0,0.2,0,0.3c0,0.3,0.4,34.6,22.3,50c5,3.5,6.2,10.4,2.7,15.3
			C825.9,198.4,822.4,200,819,200z"/>
	</g>
	<g>
		<path d="M781,228c-3,0-6-1.2-8.2-3.6C772.5,224,749.4,199,719,199c-35.8,0-101.8-3-102.5-3c-6.1-0.3-10.8-5.4-10.5-11.5
			c0.3-6.1,5.5-10.8,11.5-10.5c0.7,0,66.2,3,101.5,3c40.4,0,69,31.3,70.2,32.7c4.1,4.5,3.7,11.5-0.8,15.5
			C786.2,227.1,783.6,228,781,228z"/>
	</g>
	<g>
		<path d="M613,338c-2.9,0-5.9-1.2-8.1-3.5c-4.1-4.4-3.9-11.4,0.5-15.5c1.8-1.7,44.6-41.6,75.6-66.5c36.2-29.2,76.2-9.1,77.9-8.2
			c5.4,2.8,7.5,9.4,4.8,14.8c-2.8,5.4-9.4,7.5-14.8,4.8c-1.3-0.7-29.3-14.2-54.1,5.8c-30.3,24.5-74,65.1-74.4,65.5
			C618.4,337,615.7,338,613,338z"/>
	</g>
	<g>
		<path d="M1111.9,363.1c-0.2,0-0.3,0-0.5,0l-100.5-4.2c-5.5,0.2-41-0.2-68.4-34c-3.8-4.7-3.1-11.6,1.6-15.5
			c4.7-3.8,11.6-3.1,15.5,1.6c21.9,26.9,49.6,25.9,50.8,25.9c0.4,0,0.7,0,1,0l101,4.2c6.1,0.3,10.8,5.4,10.5,11.4
			C1122.6,358.5,1117.8,363.1,1111.9,363.1z"/>
	</g>
	<g>
		<path d="M953.8,533.3c-5.9,0-10.8-4.7-11-10.6c0-0.7-2.2-66.7-1.8-102.5c0.4-30.4-21.5-50.9-21.7-51.1c-4.5-4.1-4.8-11.1-0.7-15.5
			s11-4.8,15.5-0.7c1.2,1.1,29.4,27.1,28.9,67.6c-0.4,35.3,1.8,100.9,1.8,101.5c0.2,6.1-4.6,11.2-10.6,11.4
			C954.1,533.3,954,533.3,953.8,533.3z"/>
	</g>
	<g>
		<path d="M811.8,535.6c-2.7,0-5.5-1-7.6-3c-4.4-4.2-4.6-11.2-0.4-15.6c0.4-0.4,41.5-43.6,66.4-73.6c20.6-24.9,6.6-53.7,6.4-54
			c-2.7-5.4-0.5-12,4.9-14.8c5.4-2.7,12-0.5,14.8,4.9c0.8,1.7,20.4,42-9.1,77.8c-25.3,30.7-65.7,73-67.4,74.8
			C817.6,534.4,814.7,535.6,811.8,535.6z"/>
	</g>
</g>
<g>
	<g>
		<circle class="st0" cx="826" cy="313" r="9"/>
	</g>
	<g>
		<circle class="st0" cx="842.7" cy="297.3" r="7.7"/>
	</g>
	<g>
		<circle class="st0" cx="857.5" cy="283.5" r="5.5"/>
	</g>
</g>
<g>
	<path class="st0" d="M448.3,439.2c1.3,2.4,3,4.3,5.1,5.8c2.1,1.5,4.6,2.6,7.4,3.3c2.8,0.7,5.8,1.1,8.8,1.1c2.1,0,4.3-0.2,6.6-0.5
		c2.4-0.3,4.6-1,6.6-1.9c2.1-1,3.8-2.3,5.1-4c1.4-1.7,2.1-3.8,2.1-6.4c0-2.8-0.9-5-2.7-6.8c-1.8-1.7-4.2-3.2-7.1-4.3
		c-2.9-1.2-6.3-2.2-10-3c-3.7-0.9-7.5-1.8-11.3-2.9c-3.9-1-7.7-2.1-11.5-3.5c-3.7-1.4-7.1-3.2-10-5.4c-2.9-2.2-5.3-5-7.1-8.3
		c-1.8-3.3-2.7-7.3-2.7-12c0-5.3,1.1-9.9,3.5-13.8c2.3-3.9,5.3-7.1,9-9.7c3.7-2.6,7.9-4.5,12.6-5.8c4.7-1.2,9.4-1.9,14.1-1.9
		c5.5,0,10.7,0.6,15.8,1.8c5,1.2,9.5,3.1,13.4,5.8c3.9,2.7,7,6.1,9.3,10.3c2.3,4.2,3.5,9.2,3.5,15.2h-22.3c-0.2-3.1-0.9-5.6-2-7.6
		c-1.1-2-2.6-3.6-4.5-4.8c-1.9-1.2-4-2-6.4-2.4c-2.4-0.5-5-0.7-7.9-0.7c-1.9,0-3.7,0.2-5.6,0.6c-1.9,0.4-3.6,1.1-5.1,2
		c-1.5,1-2.8,2.2-3.7,3.6c-1,1.4-1.5,3.3-1.5,5.5c0,2,0.4,3.7,1.2,4.9c0.8,1.2,2.3,2.4,4.6,3.5c2.3,1.1,5.5,2.1,9.5,3.2
		c4.1,1.1,9.4,2.4,15.9,4c2,0.4,4.7,1.1,8.2,2.1c3.5,1,6.9,2.6,10.4,4.8c3.4,2.2,6.4,5.2,8.9,8.9c2.5,3.7,3.7,8.4,3.7,14.2
		c0,4.7-0.9,9.1-2.8,13.1c-1.9,4-4.6,7.5-8.3,10.4c-3.7,2.9-8.2,5.2-13.7,6.8c-5.4,1.6-11.7,2.4-18.9,2.4c-5.8,0-11.4-0.7-16.8-2.1
		s-10.2-3.6-14.4-6.6c-4.2-3-7.5-6.8-9.9-11.4c-2.4-4.6-3.6-10.1-3.5-16.4h22.3C446.4,433.8,447.1,436.8,448.3,439.2z"/>
	<path class="st0" d="M539.6,390v9.5h0.3c2.5-4,5.8-7,9.7-8.8c3.9-1.8,8.2-2.7,12.9-2.7c6,0,11.1,1.1,15.4,3.3
		c4.3,2.2,7.9,5.1,10.7,8.8c2.8,3.7,4.9,7.9,6.3,12.7c1.4,4.8,2.1,9.9,2.1,15.2c0,5-0.7,9.8-2.1,14.4c-1.4,4.6-3.5,8.7-6.2,12.2
		c-2.8,3.6-6.3,6.4-10.4,8.5c-4.2,2.1-9,3.2-14.6,3.2c-4.7,0-9-0.9-13-2.8c-4-1.9-7.2-4.6-9.8-8.3h-0.3v35.3h-20.9V390H539.6z
		 M566.7,449.1c2.3-1.3,4.2-3.1,5.6-5.3c1.4-2.2,2.4-4.7,3-7.6c0.6-2.9,0.9-5.8,0.9-8.8c0-3-0.3-5.9-1-8.8c-0.6-2.9-1.7-5.4-3.2-7.7
		c-1.5-2.3-3.4-4.1-5.7-5.5c-2.3-1.4-5.1-2.1-8.4-2.1c-3.4,0-6.3,0.7-8.6,2.1c-2.3,1.4-4.2,3.2-5.6,5.4c-1.4,2.2-2.4,4.8-3,7.6
		c-0.6,2.9-0.9,5.9-0.9,8.9c0,3,0.3,5.9,1,8.8c0.6,2.9,1.7,5.4,3.1,7.6c1.4,2.2,3.3,3.9,5.7,5.3c2.4,1.3,5.2,2,8.5,2
		C561.5,451.1,564.4,450.4,566.7,449.1z"/>
	<path class="st0" d="M605.9,378.5v-16.8h20.9v16.8H605.9z M626.8,390v74.4h-20.9V390H626.8z"/>
	<path class="st0" d="M693,455c-2.4,4-5.7,6.9-9.6,8.7s-8.4,2.7-13.4,2.7c-5.7,0-10.7-1.1-15-3.2c-4.3-2.2-7.9-5.1-10.6-8.8
		c-2.8-3.7-4.9-7.9-6.3-12.7c-1.4-4.8-2.1-9.8-2.1-15c0-5,0.7-9.8,2.1-14.5c1.4-4.7,3.5-8.8,6.3-12.3c2.8-3.6,6.3-6.4,10.5-8.6
		c4.2-2.2,9.1-3.2,14.7-3.2c4.5,0,8.8,0.9,12.9,2.8c4.1,1.9,7.3,4.6,9.6,8.3h0.3v-37.4h20.9v102.8h-19.8V455H693z M692.2,418.2
		c-0.6-2.8-1.6-5.3-3-7.5c-1.4-2.2-3.3-3.9-5.5-5.3c-2.3-1.3-5.1-2-8.5-2c-3.4,0-6.3,0.7-8.7,2c-2.3,1.3-4.2,3.1-5.7,5.3
		c-1.4,2.2-2.4,4.7-3.1,7.6c-0.6,2.8-1,5.8-1,8.9c0,2.9,0.3,5.8,1,8.6c0.7,2.9,1.8,5.4,3.3,7.7c1.5,2.3,3.4,4.1,5.7,5.5
		c2.3,1.4,5.1,2.1,8.3,2.1c3.4,0,6.3-0.7,8.6-2c2.3-1.3,4.1-3.1,5.5-5.4c1.4-2.3,2.4-4.8,2.9-7.7c0.6-2.9,0.9-5.9,0.9-8.9
		C693,424,692.8,421,692.2,418.2z"/>
	<path class="st0" d="M747.1,446.6c3.1,3,7.6,4.5,13.5,4.5c4.2,0,7.8-1,10.9-3.1s4.9-4.2,5.6-6.6h18.4c-2.9,8.9-7.4,15.3-13.5,19.2
		c-6.1,3.8-13.4,5.8-22,5.8c-6,0-11.4-0.9-16.2-2.8c-4.8-1.9-8.9-4.5-12.2-8c-3.3-3.5-5.9-7.6-7.7-12.4c-1.8-4.8-2.7-10.1-2.7-15.8
		c0-5.6,0.9-10.8,2.8-15.6c1.9-4.8,4.5-9,7.9-12.5c3.4-3.5,7.5-6.3,12.3-8.3c4.7-2,10-3,15.8-3c6.5,0,12.1,1.2,16.9,3.7
		c4.8,2.4,8.7,5.7,11.8,9.9c3.1,4.1,5.3,8.8,6.7,14.1c1.4,5.3,1.9,10.8,1.5,16.6H742C742.2,438.9,744,443.7,747.1,446.6z
		 M770.7,407.5c-2.5-2.7-6.3-4-11.4-4c-3.3,0-6.1,0.6-8.3,1.7c-2.2,1.1-4,2.5-5.3,4.1c-1.3,1.6-2.3,3.4-2.8,5.2
		c-0.5,1.8-0.9,3.5-1,4.9h33.9C774.9,414.1,773.2,410.2,770.7,407.5z"/>
	<path class="st0" d="M824.8,390v13.8h0.3c1-2.3,2.3-4.4,4-6.4c1.7-2,3.6-3.6,5.7-5c2.2-1.4,4.5-2.5,6.9-3.2c2.4-0.8,5-1.2,7.6-1.2
		c1.4,0,2.9,0.2,4.6,0.7v19c-1-0.2-2.2-0.4-3.5-0.5c-1.4-0.1-2.7-0.2-4-0.2c-3.8,0-7.1,0.6-9.7,1.9c-2.6,1.2-4.8,3-6.4,5.1
		c-1.6,2.2-2.8,4.7-3.5,7.6c-0.7,2.9-1,6-1,9.4v33.6H805V390H824.8z"/>
</g>
<g>
	<path d="M29.7,439.1c1.3,2.4,3,4.3,5.1,5.8c2.1,1.5,4.6,2.6,7.4,3.3c2.8,0.7,5.8,1.1,8.8,1.1c2.1,0,4.3-0.2,6.6-0.5
		c2.4-0.3,4.6-1,6.6-1.9c2.1-1,3.8-2.3,5.1-4c1.4-1.7,2.1-3.8,2.1-6.4c0-2.8-0.9-5-2.7-6.8c-1.8-1.7-4.2-3.2-7.1-4.3
		c-2.9-1.2-6.3-2.2-10-3c-3.7-0.9-7.5-1.8-11.3-2.9c-3.9-1-7.7-2.1-11.5-3.5c-3.7-1.4-7.1-3.2-10-5.4c-2.9-2.2-5.3-5-7.1-8.3
		C9.9,399,9,395,9,390.3c0-5.3,1.1-9.9,3.5-13.8c2.3-3.9,5.3-7.1,9-9.7c3.7-2.6,7.9-4.5,12.6-5.8c4.7-1.2,9.4-1.9,14.1-1.9
		c5.5,0,10.7,0.6,15.8,1.8c5,1.2,9.5,3.1,13.4,5.8c3.9,2.7,7,6.1,9.3,10.3c2.3,4.2,3.5,9.2,3.5,15.2H67.9c-0.2-3.1-0.9-5.6-2-7.6
		c-1.1-2-2.6-3.6-4.5-4.8c-1.9-1.2-4-2-6.4-2.4c-2.4-0.5-5-0.7-7.9-0.7c-1.9,0-3.7,0.2-5.6,0.6c-1.9,0.4-3.6,1.1-5.1,2
		c-1.5,1-2.8,2.2-3.7,3.6c-1,1.4-1.5,3.3-1.5,5.5c0,2,0.4,3.6,1.2,4.9c0.8,1.2,2.3,2.4,4.6,3.5c2.3,1.1,5.5,2.1,9.5,3.2
		c4.1,1.1,9.4,2.4,15.9,4c2,0.4,4.7,1.1,8.2,2.1c3.5,1,6.9,2.6,10.4,4.8c3.4,2.2,6.4,5.2,8.9,8.9c2.5,3.7,3.7,8.4,3.7,14.2
		c0,4.7-0.9,9.1-2.8,13.1c-1.9,4-4.6,7.5-8.3,10.4c-3.7,2.9-8.2,5.2-13.7,6.8c-5.4,1.6-11.7,2.4-18.9,2.4c-5.8,0-11.4-0.7-16.8-2.1
		s-10.2-3.6-14.4-6.6c-4.2-3-7.5-6.8-9.9-11.4c-2.4-4.6-3.6-10.1-3.5-16.4h22.3C27.8,433.8,28.5,436.7,29.7,439.1z"/>
	<path d="M101.6,411.1c1.9-4.8,4.5-9,7.9-12.4c3.4-3.4,7.5-6,12.3-7.9c4.8-1.9,10.2-2.8,16.2-2.8c6,0,11.4,0.9,16.2,2.8
		c4.8,1.9,9,4.5,12.4,7.9c3.4,3.4,6.1,7.5,7.9,12.4c1.9,4.8,2.8,10.2,2.8,16.2c0,6-0.9,11.3-2.8,16.1c-1.9,4.8-4.5,8.9-7.9,12.3
		c-3.4,3.4-7.6,6-12.4,7.8c-4.8,1.8-10.3,2.7-16.2,2.7c-6,0-11.4-0.9-16.2-2.7c-4.8-1.8-8.9-4.4-12.3-7.8c-3.4-3.4-6.1-7.5-7.9-12.3
		c-1.9-4.8-2.8-10.2-2.8-16.1C98.8,421.4,99.7,416,101.6,411.1z M120.5,436c0.6,2.8,1.6,5.4,3,7.6c1.4,2.3,3.3,4.1,5.7,5.4
		c2.3,1.3,5.3,2,8.8,2c3.5,0,6.5-0.7,8.9-2c2.4-1.3,4.3-3.1,5.7-5.4c1.4-2.3,2.4-4.8,3-7.6c0.6-2.8,0.9-5.7,0.9-8.7
		c0-3-0.3-5.9-0.9-8.8c-0.6-2.9-1.6-5.4-3-7.6c-1.4-2.2-3.3-4-5.7-5.4c-2.4-1.4-5.4-2.1-8.9-2.1c-3.5,0-6.5,0.7-8.8,2.1
		c-2.4,1.4-4.2,3.2-5.7,5.4c-1.4,2.2-2.4,4.8-3,7.6c-0.6,2.9-0.9,5.8-0.9,8.8C119.6,430.3,119.9,433.2,120.5,436z"/>
	<path d="M223,403.4c-3.3,0-6.1,0.7-8.4,2.2c-2.3,1.5-4.1,3.4-5.5,5.8c-1.4,2.4-2.4,4.9-3,7.8c-0.6,2.8-0.9,5.6-0.9,8.4
		c0,2.7,0.3,5.4,0.9,8.2c0.6,2.8,1.5,5.3,2.9,7.6c1.3,2.3,3.1,4.1,5.4,5.5c2.3,1.4,5,2.2,8.2,2.2c5,0,8.8-1.4,11.5-4.1
		c2.7-2.7,4.4-6.4,5.1-11h20.1c-1.4,9.9-5.3,17.4-11.8,22.6c-6.5,5.2-14.7,7.8-24.8,7.8c-5.7,0-10.9-0.9-15.6-2.8
		c-4.8-1.9-8.8-4.5-12.1-7.8c-3.3-3.4-5.9-7.4-7.8-12c-1.9-4.7-2.8-9.8-2.8-15.3c0-5.8,0.9-11.1,2.6-16.1c1.7-4.9,4.2-9.2,7.6-12.8
		c3.3-3.6,7.4-6.4,12.2-8.4c4.8-2,10.3-3,16.5-3c4.5,0,8.8,0.6,13,1.7c4.2,1.2,7.9,2.9,11.2,5.3c3.3,2.4,5.9,5.3,8,8.8
		c2.1,3.5,3.2,7.7,3.5,12.5h-20.4C237.1,407.7,231.9,403.4,223,403.4z"/>
	<path d="M267.5,378.5v-16.8h20.9v16.8H267.5z M288.4,390v74.4h-20.9V390H288.4z"/>
	<path d="M299.9,412.9c0.3-4.8,1.5-8.8,3.7-12c2.2-3.2,4.9-5.7,8.2-7.6c3.3-1.9,7.1-3.3,11.2-4.1c4.2-0.8,8.3-1.2,12.6-1.2
		c3.8,0,7.7,0.3,11.6,0.8c3.9,0.5,7.5,1.6,10.7,3.1c3.2,1.5,5.9,3.7,7.9,6.4c2.1,2.7,3.1,6.4,3.1,10.9v38.7c0,3.4,0.2,6.6,0.6,9.6
		c0.4,3.1,1.1,5.4,2.1,6.9h-21.2c-0.4-1.2-0.7-2.3-1-3.5c-0.2-1.2-0.4-2.4-0.5-3.7c-3.3,3.4-7.2,5.7-11.8,7.1c-4.5,1.3-9.1,2-13.8,2
		c-3.6,0-7-0.4-10.1-1.3c-3.1-0.9-5.9-2.2-8.2-4c-2.4-1.8-4.2-4.1-5.5-6.9c-1.3-2.8-2-6.1-2-9.9c0-4.2,0.8-7.7,2.3-10.4
		c1.5-2.7,3.5-4.9,5.9-6.6c2.4-1.6,5.1-2.9,8.2-3.7c3.1-0.8,6.2-1.5,9.3-1.9c3.1-0.5,6.2-0.9,9.3-1.2c3-0.3,5.7-0.7,8.1-1.3
		s4.2-1.4,5.6-2.5c1.4-1.1,2-2.7,1.9-4.8c0-2.2-0.4-4-1.1-5.3s-1.7-2.3-2.9-3c-1.2-0.7-2.6-1.2-4.3-1.4c-1.6-0.2-3.4-0.4-5.2-0.4
		c-4.1,0-7.3,0.9-9.7,2.6c-2.4,1.7-3.7,4.6-4.1,8.6H299.9z M348,428c-0.9,0.8-2,1.4-3.3,1.8c-1.3,0.4-2.7,0.8-4.3,1.1
		c-1.5,0.3-3.1,0.5-4.8,0.7c-1.7,0.2-3.3,0.4-5,0.7c-1.6,0.3-3.1,0.7-4.6,1.2c-1.5,0.5-2.8,1.1-4,1.9c-1.1,0.8-2,1.8-2.7,3.1
		c-0.7,1.2-1,2.8-1,4.8c0,1.8,0.3,3.4,1,4.6c0.7,1.2,1.6,2.2,2.8,3c1.2,0.7,2.5,1.2,4.1,1.5c1.6,0.3,3.2,0.4,4.8,0.4
		c4.1,0,7.3-0.7,9.5-2c2.3-1.3,3.9-3,5-4.8c1.1-1.9,1.7-3.8,2-5.7c0.2-1.9,0.4-3.5,0.4-4.6V428z"/>
	<path d="M402.4,361.7v102.8h-20.9V361.7H402.4z"/>
</g>
</svg>
